<svg id="Layer_4" data-name="Layer 4" xmlns="http://www.w3.org/2000/svg" viewBox="0 0 232.15 221.54"><defs><style>.cls-1,.cls-3,.cls-4,.cls-5,.cls-7,.cls-8{fill:none;}.cls-2{fill:#cee7ef;}.cls-3{stroke:#cececd;stroke-width:3.3px;}.cls-4{stroke:#fff;stroke-width:2.5px;}.cls-5,.cls-6{stroke:#2d2d2d;}.cls-6{fill:#fff;}.cls-7{stroke:#a3a2a2;stroke-width:0.5px;}.cls-7,.cls-8{stroke-linecap:round;stroke-linejoin:round;}.cls-8{stroke:#010101;stroke-dasharray:2;}</style></defs><title>map_spb</title><path class="cls-1" d="M553.65,653.3a3.19,3.19,0,0,1-1.89-2.58,3.07,3.07,0,0,0-.35-1.9c-0.6-.86-1.52-0.18-2.23.17a3.46,3.46,0,0,1-3.29-.15c-1.37-.69-1.76-2-3.07-2.82a16,16,0,0,0-2.74-.79c-1.7-.62-1.68-2.83-0.56-4a7.19,7.19,0,0,1,1.83-1.15c0.58-.31,1.07-0.76,1.67-1s1.62-.36,1.9-0.78l-4-10L544.8,601l5.54-2.68,1.47,3.06,2.55-.7-0.64-.57c-0.33-.3-0.73-0.48-1-0.81a2.84,2.84,0,0,1-.43-1.29c-0.27-.68-1.89-1.46-2.61-1.7-0.44-.15-1.2,0-1.48-0.39-0.45-.65.4-0.67,0.64-1.1a1.6,1.6,0,0,0-.22-1.47,2.07,2.07,0,0,0-1.29.48,7.16,7.16,0,0,0-1.26.76c-0.57.44-.67,0.35-1.3,0-1.05-.62-1-1.23-1.22-2.34-0.08-.43-0.24-0.93-0.37-1.35a1.7,1.7,0,0,1-.19-1.23,6.29,6.29,0,0,0,.51-1.26c0.07-.79-0.29-0.76-0.9-0.89a0.84,0.84,0,0,1-.77-0.64c-0.17-.25-0.31-0.66-0.7-0.31a0.3,0.3,0,0,1-.13-0.24s0.06,0.09.12,0c0-.51-0.38-0.86-0.44-1.33a6.14,6.14,0,0,1,.27-1.29,2.87,2.87,0,0,0,0-1.39c-0.43-.62-0.82.05-1.31,0.05a4.26,4.26,0,0,1-1.17-.61c-0.19-.14-0.32-0.38-0.51-0.51-0.37-.23-0.08-0.14-0.48-0.13s-0.89.41-1.1-.4a4.82,4.82,0,0,1,0-1.39c0.44-.26,1.2-1,0.46-1.41a0.88,0.88,0,0,0-.41-1.28c-0.46-.13-1.21.08-1.72,0a1.81,1.81,0,0,1-1.23-.75c-0.25-.23-0.87-0.7-1.07-0.4l-4.08-2.68,0.57-1-5.42-3.44,0-.07-3.94,8.37,0.51,9.56-1,3.51-2.55,2.35,2.49,4.72-1-.68-2.83.74,1.47,6.2s-0.42,1-1,2.55c3.08,0.88,3.85.11,6.14-1.1a2.18,2.18,0,0,1,3.34,1.13,15.93,15.93,0,0,1-.2,3.25,15.43,15.43,0,0,1-1.44,4.73c-0.71,1.61,1.44,3.65,1.44,3.65l-7.11,2.34,0.1,0,18.83,28.83,0.13,0,6.32,9.36-0.35-1.4,0.47-.94L543.5,656,545,652.8l4.68,3,1.17-1.87,2.11-.7Z" transform="translate(-355.27 -497.14)"/><path class="cls-2" d="M503.88,576c0.26,0,.47.33,0.62,0s-0.25-.66-0.18-1,0-.22-0.22-0.17a0.51,0.51,0,0,1-.43-0.19l0,0a0.7,0.7,0,0,0-.51.36c0,0.12,0,.28,0,0.4a0.39,0.39,0,0,0,.07.36A1.2,1.2,0,0,0,503.88,576Zm-6.33-2.9a1,1,0,0,1,.68.23c0.1,0.09.13,0.22,0.24,0.31a0.55,0.55,0,0,0,.39.07,1.12,1.12,0,0,1,.73.06c0.23,0.1.47,0.11,0.7,0.22a2,2,0,0,0,.78.16c0.19,0,.68,0,0.51-0.31a2.08,2.08,0,0,0-.55-0.43,3.19,3.19,0,0,1-.44-0.41v0a0.88,0.88,0,0,0-.71-0.19,2,2,0,0,1-.82-0.06,2.1,2.1,0,0,0-.81,0c-0.14,0-.24-0.06-0.37-0.05a0.57,0.57,0,0,0-.32.19,0.83,0.83,0,0,0-.31.2C497.24,573.25,497.48,573.12,497.55,573.11Zm9.38-5.17a3,3,0,0,1-.08.78,2.27,2.27,0,0,0,0,.8c0,0.25.16,0.47,0.19,0.71a0.88,0.88,0,0,0,.05.39,1.1,1.1,0,0,1,.18.31c0,0.12,0,.24,0,0.36a3.23,3.23,0,0,0,.16.33c0.05,0.15.06,0.76,0.34,0.6a0.47,0.47,0,0,0,.13-0.33,0.53,0.53,0,0,1,.13-0.31,1.07,1.07,0,0,0,.3-0.63,1.43,1.43,0,0,1,.24-0.73,1.29,1.29,0,0,0,.09-1.43,0.9,0.9,0,0,0-.24-0.34,1,1,0,0,1-.38-0.11,1.24,1.24,0,0,1-.18-0.31,2.28,2.28,0,0,1-.17-0.32c-0.08-.25,0-0.28.17-0.42a0.61,0.61,0,0,0,.08-0.55,0.42,0.42,0,0,0-.16-0.45,1.13,1.13,0,0,0-.29,0c-0.07,0-.15,0-0.24-0.07l0,0c-0.22.09-.53-0.26-0.58,0.17a2.1,2.1,0,0,0,.22.73A3.68,3.68,0,0,1,506.93,567.93Zm32.17,33.13a1.19,1.19,0,0,0,.66-0.33,10.62,10.62,0,0,0,1.06-1,1,1,0,0,0,.42-0.61,0.88,0.88,0,0,1,.31-0.61,2.74,2.74,0,0,0,.55-1.5,1.31,1.31,0,0,0-.3-0.6,0.66,0.66,0,0,1,.23-0.66c0.32-.6-0.57-0.71-0.44-1.27s0.87-.45.73-1.17a1,1,0,0,1-.18-0.7c0.11-.24.4-0.24,0.24-0.61s-0.88-.54-0.85-1.07a0.91,0.91,0,0,0,0-.77c-0.17-.3-0.23-0.24-0.05-0.59a3.68,3.68,0,0,0,.49-1.2,1.48,1.48,0,0,0-.69-1.07l0,0c-0.45.08,0,1-.15,1.38-0.08.2-.19,0.44-0.27,0.63a1.93,1.93,0,0,0-.3.56,6.69,6.69,0,0,0,.2.72,2.23,2.23,0,0,1,0,.76,1.58,1.58,0,0,0,0,.8,1.45,1.45,0,0,0,.52.31,2.11,2.11,0,0,1,0,1.48,2.66,2.66,0,0,0-.25,1.49c0.08,0.51.21,1,.26,1.52a2.59,2.59,0,0,1-.56,1.42,6,6,0,0,1-.58,1.32,2,2,0,0,1-.46.44,2.35,2.35,0,0,0-.63.34C538.89,600.72,538.82,601,539.1,601.06Zm-30.32-27.65,0,0a0.86,0.86,0,0,0-.63.31,1.23,1.23,0,0,0,.22.71,0.39,0.39,0,0,0,.62.11,5.08,5.08,0,0,0,.61-0.33c0.12-.09.14-0.23,0-0.27a1.76,1.76,0,0,1-.41,0C509.06,573.88,508.92,573.26,508.78,573.41Zm0.59,1.66,0,0c-0.14.06-.31,0-0.45,0.05a0.61,0.61,0,0,0-.24.35,1.3,1.3,0,0,1,.18.27c0.06,0.16,0,.19.16,0.26a0.31,0.31,0,0,1,.25.23,0.91,0.91,0,0,0,.19.29c0.12,0.14.31,0.55,0.5,0.42a0.68,0.68,0,0,0,.16-0.3,0.66,0.66,0,0,0,.15-0.31,0.74,0.74,0,0,0,.06-0.56,1.33,1.33,0,0,1-.15-0.21,2.46,2.46,0,0,0-.07-0.29,1.83,1.83,0,0,0-.2-0.19,0.43,0.43,0,0,0-.12-0.27C509.66,574.75,509.58,575.11,509.38,575.07Zm-43.1-21.37a0.82,0.82,0,0,0,.56.32c0.28,0.08,1,.42,1.12-0.09a0.57,0.57,0,0,0-.36-0.47c-0.15-.13-0.19-0.27-0.32-0.41a1.65,1.65,0,0,0-.23-0.13l0,0c-0.19-.15-0.17-0.3-0.42-0.24a0.64,0.64,0,0,0-.44.36s0.08,0.24.09,0.29A1.37,1.37,0,0,0,466.27,553.71ZM469.08,690c-0.32.25,0.09,1,.07,1.27a0.77,0.77,0,0,1-.41-0.14,1.36,1.36,0,0,0,0,.68c0,0.25-.09.44-0.09,0.68a3.47,3.47,0,0,0,.3,1.25,0.48,0.48,0,0,0,.9.16,4.48,4.48,0,0,0,.35-1.19,2.61,2.61,0,0,1,.16-0.47,2.28,2.28,0,0,0,.28-0.31,1.35,1.35,0,0,0-.16-1A3.57,3.57,0,0,0,469.08,690Zm0,0s0,0,0,0h0Zm26.72-94.56a4.08,4.08,0,0,1,.42,0c0.29,0,.57-0.13.85-0.19a6.61,6.61,0,0,1,.92-0.08l0.43,0h0.5c0.14,0,.29,0,0.44,0a2.94,2.94,0,0,0,.46.06,7.9,7.9,0,0,1,1.21,0,3.41,3.41,0,0,1,.85.27,0.62,0.62,0,0,1,.31.2,0.54,0.54,0,0,1-.15.31c-0.06.11-.08,0.24-0.15,0.35a4,4,0,0,0-.21.36,3.86,3.86,0,0,1-.4.64,0.57,0.57,0,0,1-.7.2,2.52,2.52,0,0,0-.68-0.36,4.51,4.51,0,0,1-1.3-.23,6.3,6.3,0,0,1-.76-0.57,1.67,1.67,0,0,0-.44-0.23c-0.14,0-.28,0-0.42-0.06a1.57,1.57,0,0,1-.34-0.2,1,1,0,0,0-.41,0c-0.09,0-.77,0-0.64-0.18h0C495.46,595.58,495.73,595.44,495.8,595.43Zm-4.1,1.47c0.43,0.06.78-.15,1.2-0.11a5.78,5.78,0,0,0,1.3.05,2.13,2.13,0,0,1,.63,0c0.2,0,.4.1,0.61,0.12a2.59,2.59,0,0,0,.65-0.07,3.41,3.41,0,0,1,.67,0,3.67,3.67,0,0,1,1.05.36l0.55,0.19a4,4,0,0,0,.95.28,11.75,11.75,0,0,1,1.18.33,1.14,1.14,0,0,0,1.07-.4,2.74,2.74,0,0,0,.64-1,2,2,0,0,1,.17-0.54,0.9,0.9,0,0,1,.48-0.28,6.82,6.82,0,0,1,2.46-.41,9.6,9.6,0,0,1,1.29.22l0.59,0.13a1.67,1.67,0,0,1,.63.25,2.4,2.4,0,0,0-.08.23,3.47,3.47,0,0,1-.73.56c-0.33.21-.69,0.34-1,0.53s-0.61.48-.95,0.66a10,10,0,0,0-1.1.51,1.41,1.41,0,0,0-.59.95,1.79,1.79,0,0,1-.37,1,1.76,1.76,0,0,1-.9.52,4.13,4.13,0,0,1-1.29.06l-0.61-.08-0.32-.06a6.21,6.21,0,0,1-.92-0.18,3.55,3.55,0,0,0-.68-0.17l-0.64-.08c-0.21,0-.43,0-0.64,0a6.28,6.28,0,0,0-.66-0.08c-0.09,0-1.31-.38-1.4-0.36-0.46-.24-2.22-0.4-2.61-0.8a8,8,0,0,1-.89-0.71C491.22,598,491.26,597.87,491.69,596.9Zm-8.84,30.94,0-.13c0.93,0.13,3.31.33,3.86-.32s0.59-2.08,1.31-2.2a2.8,2.8,0,0,0,1.29-.6,2.29,2.29,0,0,0,.57-1.21,10,10,0,0,0,1-.94,0.87,0.87,0,0,0-.28-0.76l-1.24-1c0.09-.22.27-0.44,0.35-0.67l1-1.91,1.55,0.79a0.65,0.65,0,0,1,.3.27,0.75,0.75,0,0,1-.31.28,1.77,1.77,0,0,0-.29.31,7.75,7.75,0,0,0-.44.81c-0.15.27-.31,0.54-0.44,0.81a0.39,0.39,0,0,0,0,.45,0.48,0.48,0,0,0,.11.18l0.82-.12,1.2-1.75,0.09-.74h0a3.2,3.2,0,0,0,.75.11l-0.09.23-0.54.7V621L489,626.71A7.1,7.1,0,0,1,482.85,627.84ZM499,620.33c-0.17.38-.5,0.67-0.71,1a7,7,0,0,1-1.42,2.09,4.52,4.52,0,0,0-1.5,2,7.92,7.92,0,0,0-.29,1.34,4.73,4.73,0,0,1-.28,1.33,1.86,1.86,0,0,1-1.1,1c-0.24.1-.73,0.21-1,0.29l1.88-2.9-2.32-1.51-1.23,1.59-0.21-.15-1,1.31-0.47-.36,5-6.91,0.67-.23,1.37,0,0-.74-1.46.08s-0.28,0,0-.07a4.68,4.68,0,0,0,.72-0.36c0.32-.12.92,0.05,1.28-0.05s0.78-.05,1.14-0.12a5,5,0,0,0,1.11-.3A9.36,9.36,0,0,1,499,620.33Zm-3-4.6a4.71,4.71,0,0,0-.83-0.46,1.77,1.77,0,0,1-.68-0.38,0.39,0.39,0,0,1,0-.47,0.55,0.55,0,0,0,0-.64,1.37,1.37,0,0,1-.51-0.49,1.3,1.3,0,0,1,0-.4,0.49,0.49,0,0,1,.28-0.27c0.11-.07.2-0.14,0.15-0.27a0.47,0.47,0,0,0-.29-0.21c-0.28,0-.39.3-0.4,0.5a1.72,1.72,0,0,1-.15.75,0.58,0.58,0,0,1-.51.37c-0.2,0-.39,0-0.59,0a0.56,0.56,0,0,1-.46-0.2,8.74,8.74,0,0,1-.86-0.78c-0.59-.62-1-3.25-1.37-4,0.1-.48.12-2.38,0.23-2.84,0.06-.26,0-0.57.06-0.83l0.81-1.93a2.4,2.4,0,0,1,1.23-.51,10.72,10.72,0,0,1,1.4-.43,4,4,0,0,0,1,0,2.6,2.6,0,0,1,.54.56,4.93,4.93,0,0,0,.39.53c0.15,0.09.4,0.2,0.56,0.28a6,6,0,0,0,1.4,0,6.06,6.06,0,0,1,1.31.44,16,16,0,0,1,2,1.3,8.19,8.19,0,0,1,.83.87,2.72,2.72,0,0,0,1,.65,5.46,5.46,0,0,1,1.14.54,6.86,6.86,0,0,0,3.3,1.05c1.27,0.14.8,1.32,0,1.79a23.76,23.76,0,0,1-2.7,1.12,8,8,0,0,0-2.43,1.41,3.69,3.69,0,0,0-1.37,2.22,4.24,4.24,0,0,1-1.06,2.44,2.13,2.13,0,0,1-1.14.28A11.06,11.06,0,0,0,496,615.73Zm17.2-10.13-0.79.4a14.06,14.06,0,0,1-1.34.62,10.53,10.53,0,0,1-2.83.82c-0.49,0-1,.13-1.45.21a1.54,1.54,0,0,1-1.2-.21,5.82,5.82,0,0,1-1.3-.74,1,1,0,0,0-.76-0.58,6.3,6.3,0,0,1-.9-0.5c-0.26-.19-0.55-0.34-0.8-0.55a9.9,9.9,0,0,0-.77-0.74l-0.77-.52a9.08,9.08,0,0,0-2.49-1,6,6,0,0,1-1.22-.55,3.25,3.25,0,0,1-.52-0.35c-0.35-.31-0.58-0.4-0.47-0.84a0.33,0.33,0,0,1,.4-0.27,3.19,3.19,0,0,1,.8.33c0.21,0.06.43,0.06,0.64,0.12a7.14,7.14,0,0,0,2.28.53c0.42,0,.84-0.17,1.28-0.19,0.21,0,.41-0.06.61-0.09a3.89,3.89,0,0,0,.64-0.16,2.5,2.5,0,0,0,1.09-.59,2.6,2.6,0,0,0,.4-1.09,2,2,0,0,1,.19-0.55,1.91,1.91,0,0,1,.85-0.46l1-.51a10.65,10.65,0,0,1,1.08-.58c0.36-.16.72-0.33,1.08-0.53a4.85,4.85,0,0,1,1.16-.43,1.66,1.66,0,0,1,1.19.22,2.82,2.82,0,0,1,1,.87,5.72,5.72,0,0,1,.64,1.12,7.21,7.21,0,0,1,.42,1.35c0.07,0.41.27,0.77,0.37,1.19a5.29,5.29,0,0,1,.15,1.29,6.9,6.9,0,0,0,.24,2.12,1.38,1.38,0,0,0,.14.38,0.76,0.76,0,0,1,.19.26A0.35,0.35,0,0,1,513.15,605.6ZM418.44,510a2,2,0,0,1,.6,1c0,0.23-.16.32,0.06,0.54a0.68,0.68,0,0,0,.61.09,2,2,0,0,0,.86-0.93,2.13,2.13,0,0,1-.4-0.35c0-.33.38,0,0.57-0.07a0.52,0.52,0,0,0,.08-1,0.86,0.86,0,0,0-.53.09c-0.33,0-.18,0-0.43-0.17s-0.1-.07-0.48-0.05a1.51,1.51,0,0,1-.62-0.16V509c-0.34.17-.56-0.45-1-0.37a0.88,0.88,0,0,0-.4.86A1.14,1.14,0,0,1,418.44,510Zm31.68,46.39a2,2,0,0,0-.21.56,0.48,0.48,0,0,0,.5.36,1.12,1.12,0,0,1,1.06.55,2.79,2.79,0,0,1,.29,1.24,3.21,3.21,0,0,1-.36,1.29,1.37,1.37,0,0,0-.08,1.26,1,1,0,0,1,0,1.12,1.24,1.24,0,0,0-.17,1.18,1.39,1.39,0,0,1-.07.7,0.69,0.69,0,0,0,.81,1,10.29,10.29,0,0,0,1.43-.57,1.16,1.16,0,0,0,.74-0.88,3.4,3.4,0,0,1,.76-0.92,6,6,0,0,0,.62-1.17,2.34,2.34,0,0,1,.88-0.85,5.89,5.89,0,0,1,1.2-.42c0.59-.2.39-0.53,0.53-1a1.88,1.88,0,0,1,.86-0.93,8,8,0,0,0,.65-1,2.08,2.08,0,0,1,1-.77c0.2-.07.36-0.16,0.56-0.21a2.35,2.35,0,0,0,.62-0.18,1.36,1.36,0,0,0,.82-0.79c0.09-.34.55-0.78,0.27-1.07s-0.35-.24-0.52-0.4a1.14,1.14,0,0,0-.46-0.31,4.19,4.19,0,0,1-.83-0.37c-0.31-.19-0.52-0.5-0.82-0.68a1.66,1.66,0,0,0-.82-0.18,0.56,0.56,0,0,0-.53.26,0.54,0.54,0,0,1-.68,0c-0.19-.1-0.4-0.11-0.59-0.21a2.29,2.29,0,0,1-.47-0.44,2.25,2.25,0,0,1-.8-0.94,4.2,4.2,0,0,0-.52-1.15,4.52,4.52,0,0,0-.77-1.1c-0.09-.07-0.2-0.08-0.29-0.16s-0.1-.17-0.18-0.25a2.59,2.59,0,0,0-.52-0.28,1.07,1.07,0,0,0-.6-0.26,0.69,0.69,0,0,1-.53-0.32,1.64,1.64,0,0,1-.46-0.31,3.31,3.31,0,0,1-.13-0.67,0.88,0.88,0,0,0-.12-0.61c-0.26-.22-0.34.08-0.37,0.32a3.34,3.34,0,0,1-.28,1.32,0.5,0.5,0,0,0-.21.51,4,4,0,0,1,.55.31,1,1,0,0,1-.18.54,1,1,0,0,0,.14,1.12c0.08,0.17.11,0.36,0.18,0.53a1.21,1.21,0,0,1,.21,1.15c-0.07.18-.23,0.3-0.3,0.47a3.76,3.76,0,0,0-.09.65c-0.07.29-.6,0.91,0.06,0.74,0.16,0,.48-0.26.52,0a0.79,0.79,0,0,1-.38.47,3.3,3.3,0,0,0-.35.45,2.76,2.76,0,0,0-.27.2,1.9,1.9,0,0,0-.08.3,0.86,0.86,0,0,1-.41.32c-0.22.14-.29,0.33-0.41,0-0.07-.2-0.07-0.39-0.15-0.58a1.05,1.05,0,0,1-.17-0.6,1.21,1.21,0,0,1,.3-0.43c0.21-.33.07-0.27-0.21-0.33s-0.94-.42-1,0.21a1.6,1.6,0,0,0,.36,1.17A1.83,1.83,0,0,1,450.12,556.44Zm19,132.42a1,1,0,0,0,.45.66,1.43,1.43,0,0,0-.36-1.14,3.57,3.57,0,0,1-.59-1.22c-0.05-.23-0.06-0.47-0.11-0.68a1.3,1.3,0,0,1-.16-0.63,5.71,5.71,0,0,0,.3-0.53,1,1,0,0,0-.24-0.62,0.66,0.66,0,0,0-.2-0.36,1.1,1.1,0,0,1-.33-0.24h-0.09c-0.28-.33-0.62.45-0.59,0.68a1.44,1.44,0,0,0,.29.57c0.12,0.16.21,0.34,0.33,0.5a2.8,2.8,0,0,1,.51,1.22,5,5,0,0,0,0,.67,1.76,1.76,0,0,0,.36.45C468.81,688.4,469,688.63,469.09,688.86Z" transform="translate(-355.27 -497.14)"/><path class="cls-2" d="M513.62,562.53c0-.21-0.13-0.44-0.16-0.66a4.23,4.23,0,0,0,1-.24c0.48-.15.06-0.58,0.47-0.76a10.44,10.44,0,0,1,2-.42,1.7,1.7,0,0,0,1.08-.48c0.15-.2.33-1,0.62-0.68a4.43,4.43,0,0,1-.47.87,6.94,6.94,0,0,1-.44,1,1.56,1.56,0,0,1-.55.78,3,3,0,0,1-1.07.21c-0.21,0-.44-0.1-0.66-0.09a2.12,2.12,0,0,0-.61.17c-0.4.13-.81,0.31-1.22,0.39A0.14,0.14,0,0,1,513.62,562.53Z" transform="translate(-355.27 -497.14)"/><line class="cls-3" x1="196.64" y1="195.62" x2="143.56" y2="135.84"/><polygon class="cls-3" points="148.4 145.85 149.96 135.69 156.78 135.78 156.59 148.78 159.01 151.59 152.16 151.75 148.4 145.85"/><polyline class="cls-3" points="149.64 137.09 157.96 137.25 159.77 136.84 162.74 150.88 159.01 151.59"/><line class="cls-3" x1="157.96" y1="137.25" x2="160.73" y2="152.64"/><polyline class="cls-3" points="149.35 139.54 158.4 139.9 160.28 139.45"/><line class="cls-3" x1="152.6" y1="134.16" x2="152.54" y2="147.76"/><polyline class="cls-3" points="153.72 144.07 135.88 143.56 128.59 139.86 127.88 141.33 127.37 152.99"/><polyline class="cls-3" points="170.57 191.44 165.31 187.84 165.12 179.68 153.59 170.54 153.66 147.25 153.88 124.16 154.04 117.69 157.26 115.14 161.82 116.51 166.16 119.53"/><polyline class="cls-3" points="153.81 129.95 155.95 129.19 158.72 124.7 161.72 116.51"/><path class="cls-3" d="M516.09,613.43l-3.19,7.93,0,2.1,0.13,2.93a3.13,3.13,0,0,1,.35,2.42c-0.32,1.53.67,2.71,0.86,3.38A13.34,13.34,0,0,0,515,634" transform="translate(-355.27 -497.14)"/><line class="cls-3" x1="163.44" y1="154.2" x2="162.73" y2="150.89"/><polyline class="cls-3" points="169.43 154.26 164.14 142.98 161.91 136.13"/><polyline class="cls-3" points="155.22 140.72 155.15 147.32 156.49 148.69 155.5 149.35"/><line class="cls-3" x1="151.27" y1="135.69" x2="150.76" y2="143.97"/><polyline class="cls-3" points="171.56 152.99 160.25 128.49 159.45 127.92 160.35 125.88 160.25 125.33 162.22 120.59"/><path class="cls-3" d="M512.91,621.36l3.31,1.66s0.51,2,1.82,2.55,2.84,0.92,2.77,2.2c-1,.8-6,4.27-6,4.27l-2.77.89" transform="translate(-355.27 -497.14)"/><polyline class="cls-3" points="159.55 134.89 160.35 136.61 162.58 146.87 159.74 147.51 158.02 147.51 156.68 146.81 153.69 146.84"/><polyline class="cls-3" points="155.15 144 159.1 144.03 164.14 142.98 166.56 142.06 171.81 139.03"/><polyline class="cls-3" points="176.97 156.81 170.54 139.7 164.68 131.26"/><line class="cls-3" x1="168.57" y1="134.76" x2="162.89" y2="138.75"/><line class="cls-3" x1="171.94" y1="148.49" x2="163.05" y2="152.57"/><polyline class="cls-3" points="164.1 150.47 171.18 147.22 173.28 146.81"/><path class="cls-3" d="M544.51,649.53l-6.43-4-1-6.21a1.65,1.65,0,0,0-.86-1.24,2.9,2.9,0,0,1-1.34-1.31,1.59,1.59,0,0,0-.76-0.64,6.67,6.67,0,0,1-1.75-2.71,18.72,18.72,0,0,0-1.08-2.39,26.31,26.31,0,0,1-.64-2.61,4.5,4.5,0,0,0-1.08-2.07c-0.67-.83-3.57-4.65-3.57-4.65a12.59,12.59,0,0,1-1-.89c-0.29-.32-1.66-2.71-1.66-2.71l-6,1.66-4-1-4.24,2.55-14-.7" transform="translate(-355.27 -497.14)"/><path class="cls-3" d="M537.12,639.27a1.18,1.18,0,0,1-1.34,0c-0.83-.45-3.06-1.72-3.06-1.72l-1.43-4-2.1-3.22a7.94,7.94,0,0,0-.83-3.41,16.59,16.59,0,0,0-1.34-1.69l0.83-1.31" transform="translate(-355.27 -497.14)"/><line class="cls-3" x1="168.92" y1="129.83" x2="171.75" y2="128.11"/><polyline class="cls-3" points="178.19 142.16 176.4 141.39 174.62 137.25 172.64 134.16 172.16 132.09 168.44 127.09 164.71 125.43 163.91 123.46 164.07 121.99 163.69 119.12 164.14 118.3"/><path class="cls-3" d="M537.05,635.7l0.41-2.45a7.26,7.26,0,0,1,1.21-1.43c0.45-.29.7-2.13,0.7-2.13l0.51-3.25-3.47-8" transform="translate(-355.27 -497.14)"/><line class="cls-3" x1="186.82" y1="118.77" x2="175.13" y2="123.71"/><polyline class="cls-3" points="182.2 136.1 181.05 135.69 179.72 132.85 178.69 127.09 172.87 121.23"/><line class="cls-3" x1="178.63" y1="122.28" x2="182.2" y2="130.62"/><path class="cls-3" d="M541.48,630.22s-2.64-.13-7.93,2.58" transform="translate(-355.27 -497.14)"/><line class="cls-3" x1="169.81" y1="133.94" x2="173.92" y2="133.2"/><line class="cls-3" x1="168.53" y1="127.12" x2="169.46" y2="125.84"/><polyline class="cls-3" points="200.01 180.64 198.19 188.41 196.73 187.87 195.04 185.89 195.23 184.21 201.03 185 201.98 182.04 198.45 181.15 185.35 182.01 184.81 182.42"/><line class="cls-3" x1="200.77" y1="185.83" x2="201.03" y2="185"/><path class="cls-3" d="M558.62,683.93L558,679.79l2.48-.25,0.22-2.36,1.05-1.31,5.67-4.3a2.93,2.93,0,0,0,.45-1.56c-0.54-.45-3.22-2.45-3.22-2.45" transform="translate(-355.27 -497.14)"/><path class="cls-3" d="M583.18,674.5l-4.78-2.74a7.19,7.19,0,0,0-2.64-1c-1.15-.06-5.48-0.22-5.48-0.22a4.64,4.64,0,0,1-2.45-.54" transform="translate(-355.27 -497.14)"/><path class="cls-3" d="M562,683.93a1.62,1.62,0,0,0-.35-0.81c-0.23-.3-0.44-0.59-0.66-0.92a2.7,2.7,0,0,1-.42-1.69,3.24,3.24,0,0,0-.83-1.59c-0.28-.42-0.53-0.87-0.83-1.3-0.19-.27-0.41-0.5-0.6-0.77" transform="translate(-355.27 -497.14)"/><path class="cls-3" d="M557.22,679.53c0.24,0,.42.11,0.66,0.12a10.45,10.45,0,0,0,.45-1.52,1.61,1.61,0,0,0-.19-1.47,1.77,1.77,0,0,1-.5-0.52c0-.37.43-0.23,0.61-0.17a9.17,9.17,0,0,0,1.75.29,5.37,5.37,0,0,1,1.18.1" transform="translate(-355.27 -497.14)"/><polyline class="cls-3" points="190 196.38 178.5 194.62 177.26 193.79 175.83 194.27 171.53 193.79 169.71 192.58 171.34 190.19 165.32 186.15"/><polyline class="cls-3" points="170.89 190.9 174.43 189.56 176.66 189.24 184.02 181.4"/><polyline class="cls-3" points="172.07 191.98 173.47 198.89 172.71 199.75"/><polyline class="cls-3" points="165.19 191.69 167.77 193.41 172.01 202.17 173.25 202.36 174.84 204.12 181.34 203.93"/><path class="cls-3" d="M525,689.73a2.3,2.3,0,0,1-1.62,1.34c-1.4.48-3.06,1.12-3.06,1.12a2.38,2.38,0,0,1-2.1-.32c-0.92-.73-4.49-6.79-4.49-6.79L505.55,679l-14.4,24.94" transform="translate(-355.27 -497.14)"/><polyline class="cls-3" points="145.12 190.9 156.87 196.63 160.92 196.66 162.93 194.72"/><polyline class="cls-3" points="161.05 196.5 162.45 197.75 165 197.84 168.5 196.72 168.76 197.17 169.46 196.95"/><line class="cls-3" x1="164.81" y1="197.84" x2="163.88" y2="199.78"/><line class="cls-3" x1="171.78" y1="201.76" x2="171.3" y2="203.32"/><polyline class="cls-3" points="150.28 181.85 154.07 175.25 154.87 172.45 153.59 170.54"/><path class="cls-3" d="M537.88,643.95a1.32,1.32,0,0,1,.71.12,1.67,1.67,0,0,1,.24.65,2,2,0,0,0,1.29.81,3.49,3.49,0,0,1,.72.51,1.2,1.2,0,0,0,.67.27,5.33,5.33,0,0,1,1.65.7c1,0.57,1.17,1.9,2.11,2.54a5.88,5.88,0,0,0,1.91.7,4.33,4.33,0,0,1,1.69.8c0.23,0.16.48,0.23,0.71,0.39s0.43,0.45.67,0.65a10.22,10.22,0,0,1,1,1c0.7,0.75,1.56,1.29,2.31,2s1.35,1.29,2,2a17.08,17.08,0,0,1,1.77,2.59,25.09,25.09,0,0,0,3.76,5,3.13,3.13,0,0,0,.65.63" transform="translate(-355.27 -497.14)"/><polyline class="cls-3" points="168.95 118.26 175.03 116.13 182.61 112.43 187.62 112.31 187.07 116 182.23 114.98 182.8 112.15 179.27 104.98"/><polyline class="cls-3" points="183.54 102.81 180.8 105.77 178.63 106.64 170.86 106.92 170.16 106.98 169.68 107.53"/><line class="cls-3" x1="176.97" y1="112.59" x2="170.44" y2="112.66"/><polyline class="cls-3" points="172.74 120.97 170.6 117.24 170.03 115.81 170.86 106.92"/><polyline class="cls-3" points="173.38 119.76 171.43 116.54 171.46 114.31 171.02 112.59 171.37 111.7 171.81 106.73 170.67 105.55 167.7 103.89 166.56 102.91 164.9 101.16 163.5 100.42"/><polyline class="cls-3" points="172.48 112.72 173.09 105.74 171.24 103.64 168.6 102.49 167.39 101.54 166.37 101.09"/><polyline class="cls-3" points="170.25 108.93 178.95 109.34 186.95 105.42 187.81 102.65 188.06 100.04 189.56 98.7"/><line class="cls-3" x1="183.22" y1="103.13" x2="187.61" y2="112.31"/><polyline class="cls-3" points="182.93 107.34 185 112.4 184.43 115.2"/><polyline class="cls-3" points="181.53 105.2 182.33 105.3 183.76 104.18"/><polyline class="cls-3" points="184.14 104.82 185.86 104.05 186.95 102.27 186.95 100.74"/><polyline class="cls-3" points="173.92 139.03 175.76 142.79 176.5 142.95 177.45 140.4"/><polyline class="cls-3" points="147.83 140.59 147.06 141.26 146.52 143.05 146.33 145.98 144.07 149.51 136.39 152.89 132.06 153.5 121.07 152.09"/><polyline class="cls-3" points="139.38 139.22 141.65 136.48 143.4 136.16 148.46 128.01 148.84 126.16 147.38 126.99"/><polyline class="cls-3" points="142.6 138.27 142.22 135.5 146.11 129 146.33 127.92 146.07 126.89 148.21 125.81 149.58 123.93"/><line class="cls-3" x1="141.1" y1="129.51" x2="142.63" y2="126.74"/><polyline class="cls-3" points="141.74 128.65 142.86 129.73 144.23 129.7 149.26 132.34"/><polyline class="cls-3" points="143.97 132.66 146.68 134.38 145.12 137.5 143.4 139"/><polyline class="cls-3" points="146.52 143.05 144.19 142.98 141.45 141.17"/><polyline class="cls-3" points="142.16 141.61 142.09 145.18 135.05 149.93 125.59 149.74 123.23 148.84 118.84 148.72 118.87 148.08 119.5 146.52 119.54 144.51"/><line class="cls-3" x1="122.56" y1="144.58" x2="122.21" y2="152.19"/><line class="cls-3" x1="127.95" y1="141.23" x2="134.89" y2="144.67"/><polyline class="cls-3" points="132.12 141.55 131.04 143.75 130.91 145.25"/><line class="cls-3" x1="131.58" y1="143.84" x2="127.76" y2="143.56"/><polyline class="cls-3" points="128.94 153.11 123.45 161.49 101.73 145.05 91.19 134.67 77.26 130.05 75.29 127.69"/><polyline class="cls-3" points="83.44 131 82.23 134.76 82.87 136.04 81.25 135.81 76.56 132.79 77.39 130.05"/><line class="cls-3" x1="89.97" y1="134.32" x2="86.6" y2="143.68"/><polyline class="cls-3" points="95.64 138.87 102.94 142.31 102.78 143.3 101.79 144.8"/><polyline class="cls-3" points="102.94 142.31 112.47 142.35 114.38 142.03 117.02 142.89 119.54 144.51 134.06 145.63 138.65 143.75 143.27 139.61 142.92 136.36"/><polyline class="cls-3" points="110.52 151.65 112.56 149.19 112.47 142.35"/><path class="cls-3" d="M429.57,633.66L425,631.37l-4.2-.38-3.09-1.53a7,7,0,0,1-1.88-2.68,1.42,1.42,0,0,0-1-.83l0.76-3.57" transform="translate(-355.27 -497.14)"/><path class="cls-3" d="M430.56,624.93a2,2,0,0,0-.12-0.74,2.86,2.86,0,0,0-.45-0.45,3,3,0,0,0-1.44-.54c-1.38-.46-3.23,0-4.27-1.24a2.4,2.4,0,0,0-1.4-.92,3.35,3.35,0,0,1-2.14-.7,12.08,12.08,0,0,1-1-1.34,8.68,8.68,0,0,0-.95-1.4,3.71,3.71,0,0,0-1.53-.63,6.58,6.58,0,0,1-1.41-.61c-0.49-.26-1-0.42-1.56-0.64s-1.1-.5-1.65-0.75a5.24,5.24,0,0,0-1.69-.4,3.49,3.49,0,0,1-1.75-.47,5.33,5.33,0,0,0-1.46-.38c-0.69-.21-1.42-0.35-2.1-0.59-1.13-.4-1.61-1.45-2.57-2.07a2.23,2.23,0,0,0-1.41-.22,4.09,4.09,0,0,1-1.59-.2,8.18,8.18,0,0,0-2.46-.44c-0.92,0-1.8-.33-2.71-0.42a4.76,4.76,0,0,1-1.24,0,4.63,4.63,0,0,0-1.11-.41" transform="translate(-355.27 -497.14)"/><polyline class="cls-3" points="164.43 108.13 163.56 106.26 163 102.85"/><polyline class="cls-3" points="160.34 107.61 162.21 108.32 164.08 107.77 169.66 97.08"/><line class="cls-3" x1="173.5" y1="98.48" x2="167.65" y2="96.29"/><polyline class="cls-3" points="166.72 96.48 170.95 98.68 174.82 100.57 175.75 100.96 175.73 101.31 175.8 106.79 175.16 112.62 175.09 117.11 173.92 118.93 172.83 121.1 170.92 122.15"/><line class="cls-3" x1="177.1" y1="101.26" x2="172.46" y2="101.1"/><polyline class="cls-3" points="175.34 101.7 172.51 101.53 166.41 99.91 162.13 96.95 157.87 97.55"/><polyline class="cls-3" points="170.29 106.95 171.3 102.41 181.03 85.54"/><path class="cls-3" d="M531.46,591.12l-0.52-16-15.74-7.14-4,9.2L510.69,580l4,23.63-0.55,1.37,0.92,0.38a4.16,4.16,0,0,0,4.78-.16c0.63-.58,1.2-1.6,2.16-1.59a4.23,4.23,0,0,1,2.68.92,2.6,2.6,0,0,1,.72,2.62c-0.05.48-.15,1-0.25,1.43a6.57,6.57,0,0,0-.32,1.39,3,3,0,0,1-.28,1.19c-0.14.38-.12,0.76-0.29,1.14a2.94,2.94,0,0,0-.28,1.19,6.07,6.07,0,0,0-.1,1.18c0.13,0.89.92,1.63,1.29,2.42a14.16,14.16,0,0,1,.67,1.3,8.44,8.44,0,0,0,.61,1.37,9.34,9.34,0,0,0,2.12,1.89c0.39,0.37.71,0.8,1.1,1.16a3.66,3.66,0,0,1,.51.51,7,7,0,0,1,.94,1.35,10.08,10.08,0,0,1,.45,1.27c0.19,0.75.08,1.61,0.3,2.36,0.27,0.93.33,2,.67,2.87a7.57,7.57,0,0,0,.61,1.33,4.11,4.11,0,0,0,.81,1.12c-0.2.36,0.69,1.31,1.06,1.47a18.06,18.06,0,0,0,2.23.51,1.56,1.56,0,0,1,1.11.77,6.51,6.51,0,0,0,.78,1.23c0.31,0.34.61,0.68,0.92,1,0.14,0.15.31,0.33,0.44,0.49a5.88,5.88,0,0,1,.29.6" transform="translate(-355.27 -497.14)"/><polyline class="cls-3" points="175.12 95.66 173.97 94.89 170.09 94.2 167.65 94.25 156.71 90.76 167.7 82.8 171.06 75.82"/><line class="cls-3" x1="174.93" y1="77.63" x2="166.11" y2="93.7"/><polyline class="cls-3" points="176.11 91.73 165.34 86.09 164 86.37"/><polyline class="cls-3" points="166.85 73.81 163.64 80.93 164.27 89.83 163.17 92.61"/><line class="cls-3" x1="164.16" y1="88.68" x2="167.95" y2="90.19"/><line class="cls-3" x1="167.65" y1="94.25" x2="170.59" y2="88.84"/><line class="cls-3" x1="161.27" y1="107.17" x2="159.41" y2="106.54"/><line class="cls-3" x1="175.84" y1="81.12" x2="153.64" y2="71.2"/><polyline class="cls-3" points="163.28 72.3 159.93 79.55 160.04 81.12"/><polyline class="cls-3" points="175.92 84.97 174.16 84.97 168.25 81.42 156.41 76.26 155.09 76.59"/><polyline class="cls-3" points="163.14 92.8 160.26 88.35 155.64 81.42 163.53 80.93 164.87 81.2 175.97 87.44"/><polyline class="cls-3" points="155.97 79.88 152.62 68.54 146.46 63.48 146.49 62.22 142.01 49.77"/><polyline class="cls-3" points="143.77 54.47 144.29 53.26 146.79 52.49 148.09 52.71"/><line class="cls-3" x1="163.17" y1="63.29" x2="160.61" y2="69.09"/><polyline class="cls-3" points="152.59 68.45 153.64 68.07 158.09 70.05"/><line class="cls-3" x1="166.49" y1="73.73" x2="167.59" y2="71.48"/><polyline class="cls-3" points="162.92 92.74 160.04 95.55 160.28 97.14"/><polyline class="cls-3" points="158.47 94.67 159.6 99.91 159.19 100.02 160.53 105.08 160.97 106.29 160.62 106.97"/><line class="cls-3" x1="171.44" y1="97.72" x2="167.92" y2="103.9"/><polyline class="cls-3" points="156.22 90.93 153.44 91.4 145.23 88.87"/><polyline class="cls-3" points="151.57 91.62 147.51 92.17 134.37 88.24"/><line class="cls-3" x1="144.02" y1="91.09" x2="143.91" y2="97.47"/><polyline class="cls-3" points="157.07 92.69 151.96 95.57 151.46 95.19 151.88 93.4 150.86 86.61"/><polyline class="cls-3" points="143.94 96.04 146.96 96.4 151.96 95.57 152.01 96.56 151.63 97.55"/><path class="cls-3" d="M512.56,590.93l-5.28,2.78-5.52.82-7.2-.71-2.72-3.24-1.07-.16-5.63,1.51-2.75-.6-1.79-.39a6.26,6.26,0,0,1-2-.82,3.63,3.63,0,0,0-1.61-.41,11.19,11.19,0,0,1-1.92-.34c-0.61-.17-1.14-0.49-1.75-0.62a15.79,15.79,0,0,1-4.05-1,16.75,16.75,0,0,0-1.71-1.06c-1.07-.39-2.24-0.45-3.29-0.93a12.1,12.1,0,0,0-2.51-1,8.57,8.57,0,0,1-2.76-1c-1.08-.68-2.5-1.31-2.89-2.67-0.2-.71-0.28-1.44-0.5-2.13a5.49,5.49,0,0,0-1.11-1.87c-0.87-1.11-2.12-1.58-3.1-2.48-1.15-1.06-1.19-2.43-1.13-3.87a9.2,9.2,0,0,1,.52-2.26,4,4,0,0,0-.11-2.17c-0.32-1.3-.9-2.5-1.16-3.82a15.82,15.82,0,0,0-.34-2c-0.31-.92-0.68-1.79-1-2.7a6.12,6.12,0,0,1-.4-0.92c-0.15-.83,1-1,1.52-1.22a5.29,5.29,0,0,0,2.34-2.84c0.66-1.38-.42-2.93-0.7-4.24a7.87,7.87,0,0,1-.47-2,5.71,5.71,0,0,1,.85-1.74,21,21,0,0,1,1.33-2,8.59,8.59,0,0,0,1-2.12,5.83,5.83,0,0,0,0-4.49,8.89,8.89,0,0,0-2.08-2.86,10.55,10.55,0,0,0-3.06-2.07L406.1,513" transform="translate(-355.27 -497.14)"/><path class="cls-3" d="M480.58,589.83c0.08,0.08,1,.69,1,0.69l1.15,0.25,0.74,0.8" transform="translate(-355.27 -497.14)"/><polyline class="cls-3" points="132.31 94.14 132.51 96.09 136.16 97.44"/><line class="cls-3" x1="139.29" y1="96.67" x2="132.4" y2="94.53"/><path class="cls-3" d="M492.75,591.59" transform="translate(-355.27 -497.14)"/><line class="cls-3" x1="137.07" y1="94.23" x2="134.48" y2="93.57"/><polyline class="cls-3" points="151.49 98.43 151.38 98.98 151.55 99.45"/><line class="cls-3" x1="151.96" y1="100.13" x2="155.64" y2="109.15"/><polyline class="cls-3" points="153.31 95.96 157.87 97.55 155.78 99.17"/><path class="cls-3" d="M515.2,599.83" transform="translate(-355.27 -497.14)"/><path class="cls-3" d="M515.2,599.83" transform="translate(-355.27 -497.14)"/><path class="cls-3" d="M515.2,599.83l-1.24.38a1.63,1.63,0,0,1-.65.18,2,2,0,0,1-.33-1.14,3.32,3.32,0,0,0-.6-1.15,7.72,7.72,0,0,0-1.46-1.84,2.86,2.86,0,0,0-1.06-.49,0.58,0.58,0,0,0,.3-0.91,1.35,1.35,0,0,0-1-.33,5.64,5.64,0,0,1-1-.25,2.62,2.62,0,0,1-.85-0.52" transform="translate(-355.27 -497.14)"/><path class="cls-3" d="M509.32,594.53a2.57,2.57,0,0,1,.41-1.41,4.63,4.63,0,0,1,.91-1.09" transform="translate(-355.27 -497.14)"/><path class="cls-3" d="M491.92,609.89a2.87,2.87,0,0,0-.54-1,1.64,1.64,0,0,1-.31-1.15,23.28,23.28,0,0,1,.73-2.37A1.56,1.56,0,0,1,493,603.9a3.38,3.38,0,0,1,2,.55" transform="translate(-355.27 -497.14)"/><polyline class="cls-3" points="140.12 106.51 138.74 110.93 139.9 117.5 149.46 112.44"/><polyline class="cls-3" points="150.01 113.52 147.92 109.89 141.3 113.21 139.32 113.43"/><line class="cls-3" x1="145.58" y1="109.83" x2="148.14" y2="114.31"/><path class="cls-3" d="M502,606.4a20.41,20.41,0,0,1,1.9,1,3.71,3.71,0,0,0,1.94.8,2,2,0,0,1,1.24.3,1.21,1.21,0,0,1,.14,1.17,5.19,5.19,0,0,1-2.32,1.34,12.21,12.21,0,0,0-2.58,1.18,5.26,5.26,0,0,0-1.73,1.81L499,610.8" transform="translate(-355.27 -497.14)"/><path class="cls-3" d="M523.26,618a5.49,5.49,0,0,1-1.15-2.45,3.58,3.58,0,0,1,.39-2.79c0.25-.43.62-0.8,0.85-1.25a3.08,3.08,0,0,0,.29-1.37,14,14,0,0,1,.16-1.53,4.48,4.48,0,0,0,.19-1.5,3.24,3.24,0,0,0-1.56-2.13c-0.88-.33-1.57.88-2.24,1.27a6,6,0,0,1-2.57.84,7.07,7.07,0,0,1-1.43,0,3.35,3.35,0,0,0-1.38-.13c-0.43.14-.85,0.31-1.28,0.45a8,8,0,0,0-1.13.47c-0.74.38-1.5,0.69-2.25,1a6.82,6.82,0,0,0-2,1.22c-0.59.53-1.24,1-1.86,1.51a7.16,7.16,0,0,1-1.24.92,8.93,8.93,0,0,1-1.89.72l0.41,0.71-0.14,1.76,1.1,2.94" transform="translate(-355.27 -497.14)"/><path class="cls-3" d="M513,607.66l0.14,1.92h0a8.88,8.88,0,1,1,.63,1.1,2.35,2.35,0,0,1-.66,3.3l-3.57,2.56-4.59,2.06-2.69-.27L501.54,617l1.35-1.21-0.58-1.29,1.21-.58a7.31,7.31,0,0,1,1.15.38,1.08,1.08,0,0,0,1.13-.47,5.73,5.73,0,0,1,2.06-.74c0.49,0,1.81-.66,1.87-1.48s-0.27-1.76.36-2a2.17,2.17,0,0,1,1.68.14,1.32,1.32,0,0,0,1.48-.27" transform="translate(-355.27 -497.14)"/><polyline class="cls-3" points="152.43 109.72 151.35 109.83 149.46 108.49 147.15 106.04 145.23 104.58"/><polyline class="cls-3" points="149.95 121.37 153.85 121.4 159.32 117.55 159.87 109.81"/><polyline class="cls-3" points="162.59 116.81 165.56 112.8 167.13 111.37 167.18 110.52 159.9 110.14 158.69 110.52"/><polyline class="cls-3" points="159.79 111.87 164.82 112.33 166.74 113.79"/><line class="cls-3" x1="151.96" y1="124.01" x2="152.48" y2="114.56"/><line class="cls-3" x1="148.11" y1="118.54" x2="152.37" y2="116.78"/><path class="cls-3" d="M411,509c-0.7,0-1.56,1.09-2.31,1.32a2.76,2.76,0,0,0-1.76,1.12,6,6,0,0,0-.79,1.94,16.18,16.18,0,0,1-.38,2.26,2.58,2.58,0,0,1-2.07,1.14c-0.9-.23-1.77-0.46-2.67-0.62C400.7,516,400.36,516,400,516s-0.67-.23-1-0.27a9.07,9.07,0,0,0-1.82.41,5.59,5.59,0,0,1-2.07-.38c-0.68-.21-1.38-0.3-2.07-0.52-1.38-.44-2.37-1.53-3.77-1.83-0.71-.15-1.46-0.18-2.22-0.28s-1.43-.32-2.13-0.46a9.69,9.69,0,0,0-4.42.65,5.55,5.55,0,0,0-.85.28" transform="translate(-355.27 -497.14)"/><path class="cls-3" d="M404.68,516.39c0.36,0.46,1.53.46,2.07,0.66,0.74,0.27,1.51.45,2.22,0.7a10.78,10.78,0,0,0,2,.61,11.6,11.6,0,0,1,2.12.59c1.3,0.45,2.26,1.43,3.58,1.78a13.66,13.66,0,0,1,3.66,1.61c1.09,0.68,2,1.69,3,2.43a20,20,0,0,0,3.63,2.12c0.71,0.29,1.46.43,2.16,0.73a6.11,6.11,0,0,0,2.22.46,1.41,1.41,0,0,0,.53,0c0.18-.07.23-0.25,0.4-0.31a2.28,2.28,0,0,1,1.14.1,5.46,5.46,0,0,1,1.8,1,17.24,17.24,0,0,1,1.6,1.22,4.5,4.5,0,0,0,1.59,1.39,15.86,15.86,0,0,1,2.06.42c0.67,0.31,1.34.75,2,1.13a5.56,5.56,0,0,0,1.92.84,3.91,3.91,0,0,1,2.31,1.05,9.49,9.49,0,0,0,1.71,1.2c0.61,0.43,1.22.82,1.86,1.2a34.08,34.08,0,0,1,3.69,2.33,1.52,1.52,0,0,1,.71,1.75,4.28,4.28,0,0,1-.93,2,2.38,2.38,0,0,1-1.57.84c-0.66.1-1.52,0.17-1.8,0.88a4.77,4.77,0,0,0-.08,1.56" transform="translate(-355.27 -497.14)"/><path class="cls-3" d="M454.61,540.28a9.06,9.06,0,0,1,1-.84c0.26-.33.25-0.77,0.57-1.14a3.85,3.85,0,0,0,1.21-2.54" transform="translate(-355.27 -497.14)"/><line class="cls-4" x1="196.64" y1="195.62" x2="143.56" y2="135.84"/><polygon class="cls-4" points="148.4 145.85 149.96 135.69 156.78 135.78 156.59 148.78 159.01 151.59 152.16 151.75 148.4 145.85"/><polyline class="cls-4" points="149.64 137.09 157.96 137.25 159.77 136.84 162.74 150.88 159.01 151.59"/><line class="cls-4" x1="157.96" y1="137.25" x2="160.73" y2="152.64"/><polyline class="cls-4" points="149.35 139.54 158.4 139.9 160.28 139.45"/><line class="cls-4" x1="152.6" y1="134.16" x2="152.54" y2="147.76"/><polyline class="cls-4" points="153.72 144.07 135.88 143.56 128.59 139.86 127.88 141.33 127.37 152.99"/><polyline class="cls-4" points="170.57 191.44 165.31 187.84 165.12 179.68 153.59 170.54 153.66 147.25 153.88 124.16 154.04 117.69 157.26 115.14 161.82 116.51 166.16 119.53"/><polyline class="cls-4" points="153.81 129.95 155.95 129.19 158.72 124.7 161.72 116.51"/><path class="cls-4" d="M516.09,613.43l-3.19,7.93,0,2.1,0.13,2.93a3.13,3.13,0,0,1,.35,2.42c-0.32,1.53.67,2.71,0.86,3.38A13.34,13.34,0,0,0,515,634" transform="translate(-355.27 -497.14)"/><line class="cls-4" x1="163.44" y1="154.2" x2="162.73" y2="150.89"/><polyline class="cls-4" points="169.43 154.26 164.14 142.98 161.91 136.13"/><polyline class="cls-4" points="155.22 140.72 155.15 147.32 156.49 148.69 155.5 149.35"/><line class="cls-4" x1="151.27" y1="135.69" x2="150.76" y2="143.97"/><polyline class="cls-4" points="171.56 152.99 160.25 128.49 159.45 127.92 160.35 125.88 160.25 125.33 162.22 120.59"/><path class="cls-4" d="M512.91,621.36l3.31,1.66s0.51,2,1.82,2.55,2.84,0.92,2.77,2.2c-1,.8-6,4.27-6,4.27l-2.77.89" transform="translate(-355.27 -497.14)"/><polyline class="cls-4" points="159.55 134.89 160.35 136.61 162.58 146.87 159.74 147.51 158.02 147.51 156.68 146.81 153.69 146.84"/><polyline class="cls-4" points="155.15 144 159.1 144.03 164.14 142.98 166.56 142.06 171.81 139.03"/><polyline class="cls-4" points="176.97 156.81 170.54 139.7 164.68 131.26"/><line class="cls-4" x1="168.57" y1="134.76" x2="162.89" y2="138.75"/><line class="cls-4" x1="171.94" y1="148.49" x2="163.05" y2="152.57"/><polyline class="cls-4" points="164.1 150.47 171.18 147.22 173.28 146.81"/><path class="cls-4" d="M544.51,649.53l-6.43-4-1-6.21a1.65,1.65,0,0,0-.86-1.24,2.9,2.9,0,0,1-1.34-1.31,1.59,1.59,0,0,0-.76-0.64,6.67,6.67,0,0,1-1.75-2.71,18.72,18.72,0,0,0-1.08-2.39,26.31,26.31,0,0,1-.64-2.61,4.5,4.5,0,0,0-1.08-2.07c-0.67-.83-3.57-4.65-3.57-4.65a12.59,12.59,0,0,1-1-.89c-0.29-.32-1.66-2.71-1.66-2.71l-6,1.66-4-1-4.24,2.55-14-.7" transform="translate(-355.27 -497.14)"/><path class="cls-4" d="M537.12,639.27a1.18,1.18,0,0,1-1.34,0c-0.83-.45-3.06-1.72-3.06-1.72l-1.43-4-2.1-3.22a7.94,7.94,0,0,0-.83-3.41,16.59,16.59,0,0,0-1.34-1.69l0.83-1.31" transform="translate(-355.27 -497.14)"/><line class="cls-4" x1="168.92" y1="129.83" x2="171.75" y2="128.11"/><polyline class="cls-4" points="178.19 142.16 176.4 141.39 174.62 137.25 172.64 134.16 172.16 132.09 168.44 127.09 164.71 125.43 163.91 123.46 164.07 121.99 163.69 119.12 164.14 118.3"/><path class="cls-4" d="M537.05,635.7l0.41-2.45a7.26,7.26,0,0,1,1.21-1.43c0.45-.29.7-2.13,0.7-2.13l0.51-3.25-3.47-8" transform="translate(-355.27 -497.14)"/><line class="cls-4" x1="186.82" y1="118.77" x2="175.13" y2="123.71"/><polyline class="cls-4" points="182.2 136.1 181.05 135.69 179.72 132.85 178.69 127.09 172.87 121.23"/><line class="cls-4" x1="178.63" y1="122.28" x2="182.2" y2="130.62"/><path class="cls-4" d="M541.48,630.22s-2.64-.13-7.93,2.58" transform="translate(-355.27 -497.14)"/><line class="cls-4" x1="169.81" y1="133.94" x2="173.92" y2="133.2"/><line class="cls-4" x1="168.53" y1="127.12" x2="169.46" y2="125.84"/><polyline class="cls-4" points="200.01 180.64 198.19 188.41 196.73 187.87 195.04 185.89 195.23 184.21 201.03 185 201.98 182.04 198.45 181.15 185.35 182.01 184.81 182.42"/><line class="cls-4" x1="200.77" y1="185.83" x2="201.03" y2="185"/><path class="cls-4" d="M558.62,683.93L558,679.79l2.48-.25,0.22-2.36,1.05-1.31,5.67-4.3a2.93,2.93,0,0,0,.45-1.56c-0.54-.45-3.22-2.45-3.22-2.45" transform="translate(-355.27 -497.14)"/><path class="cls-4" d="M583.18,674.5l-4.78-2.74a7.19,7.19,0,0,0-2.64-1c-1.15-.06-5.48-0.22-5.48-0.22a4.64,4.64,0,0,1-2.45-.54" transform="translate(-355.27 -497.14)"/><path class="cls-4" d="M562,683.93a1.62,1.62,0,0,0-.35-0.81c-0.23-.3-0.44-0.59-0.66-0.92a2.7,2.7,0,0,1-.42-1.69,3.24,3.24,0,0,0-.83-1.59c-0.28-.42-0.53-0.87-0.83-1.3-0.19-.27-0.41-0.5-0.6-0.77" transform="translate(-355.27 -497.14)"/><path class="cls-4" d="M557.22,679.53c0.24,0,.42.11,0.66,0.12a10.45,10.45,0,0,0,.45-1.52,1.61,1.61,0,0,0-.19-1.47,1.77,1.77,0,0,1-.5-0.52c0-.37.43-0.23,0.61-0.17a9.17,9.17,0,0,0,1.75.29,5.37,5.37,0,0,1,1.18.1" transform="translate(-355.27 -497.14)"/><polyline class="cls-4" points="190 196.38 178.5 194.62 177.26 193.79 175.83 194.27 171.53 193.79 169.71 192.58 171.34 190.19 165.32 186.15"/><polyline class="cls-4" points="170.89 190.9 174.43 189.56 176.66 189.24 184.02 181.4"/><polyline class="cls-4" points="172.07 191.98 173.47 198.89 172.71 199.75"/><polyline class="cls-4" points="165.19 191.69 167.77 193.41 172.01 202.17 173.25 202.36 174.84 204.12 181.34 203.93"/><path class="cls-4" d="M525,689.73a2.3,2.3,0,0,1-1.62,1.34c-1.4.48-3.06,1.12-3.06,1.12a2.38,2.38,0,0,1-2.1-.32c-0.92-.73-4.49-6.79-4.49-6.79L505.55,679l-14.4,24.94" transform="translate(-355.27 -497.14)"/><polyline class="cls-4" points="145.12 190.9 156.87 196.63 160.92 196.66 162.93 194.72"/><polyline class="cls-4" points="161.05 196.5 162.45 197.75 165 197.84 168.5 196.72 168.76 197.17 169.46 196.95"/><line class="cls-4" x1="164.81" y1="197.84" x2="163.88" y2="199.78"/><line class="cls-4" x1="171.78" y1="201.76" x2="171.3" y2="203.32"/><polyline class="cls-4" points="150.28 181.85 154.07 175.25 154.87 172.45 153.59 170.54"/><path class="cls-4" d="M537.88,643.95a1.32,1.32,0,0,1,.71.12,1.67,1.67,0,0,1,.24.65,2,2,0,0,0,1.29.81,3.49,3.49,0,0,1,.72.51,1.2,1.2,0,0,0,.67.27,5.33,5.33,0,0,1,1.65.7c1,0.57,1.17,1.9,2.11,2.54a5.88,5.88,0,0,0,1.91.7,4.33,4.33,0,0,1,1.69.8c0.23,0.16.48,0.23,0.71,0.39s0.43,0.45.67,0.65a10.22,10.22,0,0,1,1,1c0.7,0.75,1.56,1.29,2.31,2s1.35,1.29,2,2a17.08,17.08,0,0,1,1.77,2.59,25.09,25.09,0,0,0,3.76,5,3.13,3.13,0,0,0,.65.63" transform="translate(-355.27 -497.14)"/><polyline class="cls-4" points="168.95 118.26 175.03 116.13 182.61 112.43 187.62 112.31 187.07 116 182.23 114.98 182.8 112.15 179.27 104.98"/><polyline class="cls-4" points="183.54 102.81 180.8 105.77 178.63 106.64 170.86 106.92 170.16 106.98 169.68 107.53"/><line class="cls-4" x1="176.97" y1="112.59" x2="170.44" y2="112.66"/><polyline class="cls-4" points="172.74 120.97 170.6 117.24 170.03 115.81 170.86 106.92"/><polyline class="cls-4" points="173.38 119.76 171.43 116.54 171.46 114.31 171.02 112.59 171.37 111.7 171.81 106.73 170.67 105.55 167.7 103.89 166.56 102.91 164.9 101.16 163.5 100.42"/><polyline class="cls-4" points="172.48 112.72 173.09 105.74 171.24 103.64 168.6 102.49 167.39 101.54 166.37 101.09"/><polyline class="cls-4" points="170.25 108.93 178.95 109.34 186.95 105.42 187.81 102.65 188.06 100.04 189.56 98.7"/><line class="cls-4" x1="183.22" y1="103.13" x2="187.61" y2="112.31"/><polyline class="cls-4" points="182.93 107.34 185 112.4 184.43 115.2"/><polyline class="cls-4" points="181.53 105.2 182.33 105.3 183.76 104.18"/><polyline class="cls-4" points="184.14 104.82 185.86 104.05 186.95 102.27 186.95 100.74"/><polyline class="cls-4" points="173.92 139.03 175.76 142.79 176.5 142.95 177.45 140.4"/><polyline class="cls-4" points="147.83 140.59 147.06 141.26 146.52 143.05 146.33 145.98 144.07 149.51 136.39 152.89 132.06 153.5 121.07 152.09"/><polyline class="cls-4" points="139.38 139.22 141.65 136.48 143.4 136.16 148.46 128.01 148.84 126.16 147.38 126.99"/><polyline class="cls-4" points="142.6 138.27 142.22 135.5 146.11 129 146.33 127.92 146.07 126.89 148.21 125.81 149.58 123.93"/><line class="cls-4" x1="141.1" y1="129.51" x2="142.63" y2="126.74"/><polyline class="cls-4" points="141.74 128.65 142.86 129.73 144.23 129.7 149.26 132.34"/><polyline class="cls-4" points="143.97 132.66 146.68 134.38 145.12 137.5 143.4 139"/><polyline class="cls-4" points="146.52 143.05 144.19 142.98 141.45 141.17"/><polyline class="cls-4" points="142.16 141.61 142.09 145.18 135.05 149.93 125.59 149.74 123.23 148.84 118.84 148.72 118.87 148.08 119.5 146.52 119.54 144.51"/><line class="cls-4" x1="122.56" y1="144.58" x2="122.21" y2="152.19"/><line class="cls-4" x1="127.95" y1="141.23" x2="134.89" y2="144.67"/><polyline class="cls-4" points="132.12 141.55 131.04 143.75 130.91 145.25"/><line class="cls-4" x1="131.58" y1="143.84" x2="127.76" y2="143.56"/><polyline class="cls-4" points="128.94 153.11 123.45 161.49 101.73 145.05 91.19 134.67 77.26 130.05 75.29 127.69"/><polyline class="cls-4" points="83.44 131 82.23 134.76 82.87 136.04 81.25 135.81 76.56 132.79 77.39 130.05"/><line class="cls-4" x1="89.97" y1="134.32" x2="86.6" y2="143.68"/><polyline class="cls-4" points="95.64 138.87 102.94 142.31 102.78 143.3 101.79 144.8"/><polyline class="cls-4" points="102.94 142.31 112.47 142.35 114.38 142.03 117.02 142.89 119.54 144.51 134.06 145.63 138.65 143.75 143.27 139.61 142.92 136.36"/><polyline class="cls-4" points="110.52 151.65 112.56 149.19 112.47 142.35"/><path class="cls-4" d="M429.57,633.66L425,631.37l-4.2-.38-3.09-1.53a7,7,0,0,1-1.88-2.68,1.42,1.42,0,0,0-1-.83l0.76-3.57" transform="translate(-355.27 -497.14)"/><path class="cls-4" d="M430.56,624.93a2,2,0,0,0-.12-0.74,2.86,2.86,0,0,0-.45-0.45,3,3,0,0,0-1.44-.54c-1.38-.46-3.23,0-4.27-1.24a2.4,2.4,0,0,0-1.4-.92,3.35,3.35,0,0,1-2.14-.7,12.08,12.08,0,0,1-1-1.34,8.68,8.68,0,0,0-.95-1.4,3.71,3.71,0,0,0-1.53-.63,6.58,6.58,0,0,1-1.41-.61c-0.49-.26-1-0.42-1.56-0.64s-1.1-.5-1.65-0.75a5.24,5.24,0,0,0-1.69-.4,3.49,3.49,0,0,1-1.75-.47,5.33,5.33,0,0,0-1.46-.38c-0.69-.21-1.42-0.35-2.1-0.59-1.13-.4-1.61-1.45-2.57-2.07a2.23,2.23,0,0,0-1.41-.22,4.09,4.09,0,0,1-1.59-.2,8.18,8.18,0,0,0-2.46-.44c-0.92,0-1.8-.33-2.71-0.42a4.76,4.76,0,0,1-1.24,0,4.63,4.63,0,0,0-1.11-.41" transform="translate(-355.27 -497.14)"/><polyline class="cls-4" points="164.43 108.13 163.56 106.26 163 102.85"/><polyline class="cls-4" points="160.34 107.61 162.21 108.32 164.08 107.77 169.66 97.08"/><line class="cls-4" x1="173.5" y1="98.48" x2="167.65" y2="96.29"/><polyline class="cls-4" points="166.72 96.48 170.95 98.68 174.82 100.57 175.75 100.96 175.73 101.31 175.8 106.79 175.16 112.62 175.09 117.11 173.92 118.93 172.83 121.1 170.92 122.15"/><line class="cls-4" x1="177.1" y1="101.26" x2="172.46" y2="101.1"/><polyline class="cls-4" points="175.34 101.7 172.51 101.53 166.41 99.91 162.13 96.95 157.87 97.55"/><polyline class="cls-4" points="170.29 106.95 171.3 102.41 181.03 85.54"/><path class="cls-4" d="M531.46,591.12l-0.52-16-15.74-7.14-4,9.2L510.69,580l4,23.63-0.55,1.37,0.92,0.38a4.16,4.16,0,0,0,4.78-.16c0.63-.58,1.2-1.6,2.16-1.59a4.23,4.23,0,0,1,2.68.92,2.6,2.6,0,0,1,.72,2.62c-0.05.48-.15,1-0.25,1.43a6.57,6.57,0,0,0-.32,1.39,3,3,0,0,1-.28,1.19c-0.14.38-.12,0.76-0.29,1.14a2.94,2.94,0,0,0-.28,1.19,6.07,6.07,0,0,0-.1,1.18c0.13,0.89.92,1.63,1.29,2.42a14.16,14.16,0,0,1,.67,1.3,8.44,8.44,0,0,0,.61,1.37,9.34,9.34,0,0,0,2.12,1.89c0.39,0.37.71,0.8,1.1,1.16a3.66,3.66,0,0,1,.51.51,7,7,0,0,1,.94,1.35,10.08,10.08,0,0,1,.45,1.27c0.19,0.75.08,1.61,0.3,2.36,0.27,0.93.33,2,.67,2.87a7.57,7.57,0,0,0,.61,1.33,4.11,4.11,0,0,0,.81,1.12c-0.2.36,0.69,1.31,1.06,1.47a18.06,18.06,0,0,0,2.23.51,1.56,1.56,0,0,1,1.11.77,6.51,6.51,0,0,0,.78,1.23c0.31,0.34.61,0.68,0.92,1,0.14,0.15.31,0.33,0.44,0.49a5.88,5.88,0,0,1,.29.6" transform="translate(-355.27 -497.14)"/><polyline class="cls-4" points="175.12 95.66 173.97 94.89 170.09 94.2 167.65 94.25 156.71 90.76 167.7 82.8 171.06 75.82"/><line class="cls-4" x1="174.93" y1="77.63" x2="166.11" y2="93.7"/><polyline class="cls-4" points="176.11 91.73 165.34 86.09 164 86.37"/><polyline class="cls-4" points="166.85 73.81 163.64 80.93 164.27 89.83 163.17 92.61"/><line class="cls-4" x1="164.16" y1="88.68" x2="167.95" y2="90.19"/><line class="cls-4" x1="167.65" y1="94.25" x2="170.59" y2="88.84"/><line class="cls-4" x1="161.27" y1="107.17" x2="159.41" y2="106.54"/><line class="cls-4" x1="175.84" y1="81.12" x2="153.64" y2="71.2"/><polyline class="cls-4" points="163.28 72.3 159.93 79.55 160.04 81.12"/><polyline class="cls-4" points="175.92 84.97 174.16 84.97 168.25 81.42 156.41 76.26 155.09 76.59"/><polyline class="cls-4" points="163.14 92.8 160.26 88.35 155.64 81.42 163.53 80.93 164.87 81.2 175.97 87.44"/><polyline class="cls-4" points="155.97 79.88 152.62 68.54 146.46 63.48 146.49 62.22 142.01 49.77"/><polyline class="cls-4" points="143.77 54.47 144.29 53.26 146.79 52.49 148.09 52.71"/><line class="cls-4" x1="163.17" y1="63.29" x2="160.61" y2="69.09"/><polyline class="cls-4" points="152.59 68.45 153.64 68.07 158.09 70.05"/><line class="cls-4" x1="166.49" y1="73.73" x2="167.59" y2="71.48"/><polyline class="cls-4" points="162.92 92.74 160.04 95.55 160.28 97.14"/><polyline class="cls-4" points="158.47 94.67 159.6 99.91 159.19 100.02 160.53 105.08 160.97 106.29 160.62 106.97"/><line class="cls-4" x1="171.44" y1="97.72" x2="167.92" y2="103.9"/><polyline class="cls-4" points="156.22 90.93 153.44 91.4 145.23 88.87"/><polyline class="cls-4" points="151.57 91.62 147.51 92.17 134.37 88.24"/><line class="cls-4" x1="144.02" y1="91.09" x2="143.91" y2="97.47"/><polyline class="cls-4" points="157.07 92.69 151.96 95.57 151.46 95.19 151.88 93.4 150.86 86.61"/><polyline class="cls-4" points="143.94 96.04 146.96 96.4 151.96 95.57 152.01 96.56 151.63 97.55"/><path class="cls-4" d="M512.56,590.93l-5.28,2.78-5.52.82-7.2-.71-2.72-3.24-1.07-.16-5.63,1.51-2.75-.6-1.79-.39a6.26,6.26,0,0,1-2-.82,3.63,3.63,0,0,0-1.61-.41,11.19,11.19,0,0,1-1.92-.34c-0.61-.17-1.14-0.49-1.75-0.62a15.79,15.79,0,0,1-4.05-1,16.75,16.75,0,0,0-1.71-1.06c-1.07-.39-2.24-0.45-3.29-0.93a12.1,12.1,0,0,0-2.51-1,8.57,8.57,0,0,1-2.76-1c-1.08-.68-2.5-1.31-2.89-2.67-0.2-.71-0.28-1.44-0.5-2.13a5.49,5.49,0,0,0-1.11-1.87c-0.87-1.11-2.12-1.58-3.1-2.48-1.15-1.06-1.19-2.43-1.13-3.87a9.2,9.2,0,0,1,.52-2.26,4,4,0,0,0-.11-2.17c-0.32-1.3-.9-2.5-1.16-3.82a15.82,15.82,0,0,0-.34-2c-0.31-.92-0.68-1.79-1-2.7a6.12,6.12,0,0,1-.4-0.92c-0.15-.83,1-1,1.52-1.22a5.29,5.29,0,0,0,2.34-2.84c0.66-1.38-.42-2.93-0.7-4.24a7.87,7.87,0,0,1-.47-2,5.71,5.71,0,0,1,.85-1.74,21,21,0,0,1,1.33-2,8.59,8.59,0,0,0,1-2.12,5.83,5.83,0,0,0,0-4.49,8.89,8.89,0,0,0-2.08-2.86,10.55,10.55,0,0,0-3.06-2.07L406.1,513" transform="translate(-355.27 -497.14)"/><path class="cls-4" d="M480.58,589.83c0.08,0.08,1,.69,1,0.69l1.15,0.25,0.74,0.8" transform="translate(-355.27 -497.14)"/><polyline class="cls-4" points="132.31 94.14 132.51 96.09 136.16 97.44"/><line class="cls-4" x1="139.29" y1="96.67" x2="132.4" y2="94.53"/><path class="cls-4" d="M492.75,591.59" transform="translate(-355.27 -497.14)"/><line class="cls-4" x1="137.07" y1="94.23" x2="134.48" y2="93.57"/><polyline class="cls-4" points="151.49 98.43 151.38 98.98 151.55 99.45"/><line class="cls-4" x1="151.96" y1="100.13" x2="155.64" y2="109.15"/><polyline class="cls-4" points="153.31 95.96 157.87 97.55 155.78 99.17"/><path class="cls-4" d="M515.2,599.83" transform="translate(-355.27 -497.14)"/><path class="cls-4" d="M515.2,599.83" transform="translate(-355.27 -497.14)"/><path class="cls-4" d="M515.2,599.83l-1.24.38a1.63,1.63,0,0,1-.65.18,2,2,0,0,1-.33-1.14,3.32,3.32,0,0,0-.6-1.15,7.72,7.72,0,0,0-1.46-1.84,2.86,2.86,0,0,0-1.06-.49,0.58,0.58,0,0,0,.3-0.91,1.35,1.35,0,0,0-1-.33,5.64,5.64,0,0,1-1-.25,2.62,2.62,0,0,1-.85-0.52" transform="translate(-355.27 -497.14)"/><path class="cls-4" d="M509.32,594.53a2.57,2.57,0,0,1,.41-1.41,4.63,4.63,0,0,1,.91-1.09" transform="translate(-355.27 -497.14)"/><path class="cls-4" d="M491.92,609.89a2.87,2.87,0,0,0-.54-1,1.64,1.64,0,0,1-.31-1.15,23.28,23.28,0,0,1,.73-2.37A1.56,1.56,0,0,1,493,603.9a3.38,3.38,0,0,1,2,.55" transform="translate(-355.27 -497.14)"/><polyline class="cls-4" points="140.12 106.51 138.74 110.93 139.9 117.5 149.46 112.44"/><polyline class="cls-4" points="150.01 113.52 147.92 109.89 141.3 113.21 139.32 113.43"/><line class="cls-4" x1="145.58" y1="109.83" x2="148.14" y2="114.31"/><path class="cls-4" d="M502,606.4a20.41,20.41,0,0,1,1.9,1,3.71,3.71,0,0,0,1.94.8,2,2,0,0,1,1.24.3,1.21,1.21,0,0,1,.14,1.17,5.19,5.19,0,0,1-2.32,1.34,12.21,12.21,0,0,0-2.58,1.18,5.26,5.26,0,0,0-1.73,1.81L499,610.8" transform="translate(-355.27 -497.14)"/><path class="cls-4" d="M523.26,618a5.49,5.49,0,0,1-1.15-2.45,3.58,3.58,0,0,1,.39-2.79c0.25-.43.62-0.8,0.85-1.25a3.08,3.08,0,0,0,.29-1.37,14,14,0,0,1,.16-1.53,4.48,4.48,0,0,0,.19-1.5,3.24,3.24,0,0,0-1.56-2.13c-0.88-.33-1.57.88-2.24,1.27a6,6,0,0,1-2.57.84,7.07,7.07,0,0,1-1.43,0,3.35,3.35,0,0,0-1.38-.13c-0.43.14-.85,0.31-1.28,0.45a8,8,0,0,0-1.13.47c-0.74.38-1.5,0.69-2.25,1a6.82,6.82,0,0,0-2,1.22c-0.59.53-1.24,1-1.86,1.51a7.16,7.16,0,0,1-1.24.92,8.93,8.93,0,0,1-1.89.72l0.41,0.71-0.14,1.76,1.1,2.94" transform="translate(-355.27 -497.14)"/><path class="cls-4" d="M513,607.66l0.14,1.92h0a8.88,8.88,0,1,1,.63,1.1,2.35,2.35,0,0,1-.66,3.3l-3.57,2.56-4.59,2.06-2.69-.27L501.54,617l1.35-1.21-0.58-1.29,1.21-.58a7.31,7.31,0,0,1,1.15.38,1.08,1.08,0,0,0,1.13-.47,5.73,5.73,0,0,1,2.06-.74c0.49,0,1.81-.66,1.87-1.48s-0.27-1.76.36-2a2.17,2.17,0,0,1,1.68.14,1.32,1.32,0,0,0,1.48-.27" transform="translate(-355.27 -497.14)"/><polyline class="cls-4" points="152.43 109.72 151.35 109.83 149.46 108.49 147.15 106.04 145.23 104.58"/><polyline class="cls-4" points="149.95 121.37 153.85 121.4 159.32 117.55 159.87 109.81"/><polyline class="cls-4" points="162.59 116.81 165.56 112.8 167.13 111.37 167.18 110.52 159.9 110.14 158.69 110.52"/><polyline class="cls-4" points="159.79 111.87 164.82 112.33 166.74 113.79"/><line class="cls-4" x1="151.96" y1="124.01" x2="152.48" y2="114.56"/><line class="cls-4" x1="148.11" y1="118.54" x2="152.37" y2="116.78"/><path class="cls-4" d="M411,509c-0.7,0-1.56,1.09-2.31,1.32a2.76,2.76,0,0,0-1.76,1.12,6,6,0,0,0-.79,1.94,16.18,16.18,0,0,1-.38,2.26,2.58,2.58,0,0,1-2.07,1.14c-0.9-.23-1.77-0.46-2.67-0.62C400.7,516,400.36,516,400,516s-0.67-.23-1-0.27a9.07,9.07,0,0,0-1.82.41,5.59,5.59,0,0,1-2.07-.38c-0.68-.21-1.38-0.3-2.07-0.52-1.38-.44-2.37-1.53-3.77-1.83-0.71-.15-1.46-0.18-2.22-0.28s-1.43-.32-2.13-0.46a9.69,9.69,0,0,0-4.42.65,5.55,5.55,0,0,0-.85.28" transform="translate(-355.27 -497.14)"/><path class="cls-4" d="M404.68,516.39c0.36,0.46,1.53.46,2.07,0.66,0.74,0.27,1.51.45,2.22,0.7a10.78,10.78,0,0,0,2,.61,11.6,11.6,0,0,1,2.12.59c1.3,0.45,2.26,1.43,3.58,1.78a13.66,13.66,0,0,1,3.66,1.61c1.09,0.68,2,1.69,3,2.43a20,20,0,0,0,3.63,2.12c0.71,0.29,1.46.43,2.16,0.73a6.11,6.11,0,0,0,2.22.46,1.41,1.41,0,0,0,.53,0c0.18-.07.23-0.25,0.4-0.31a2.28,2.28,0,0,1,1.14.1,5.46,5.46,0,0,1,1.8,1,17.24,17.24,0,0,1,1.6,1.22,4.5,4.5,0,0,0,1.59,1.39,15.86,15.86,0,0,1,2.06.42c0.67,0.31,1.34.75,2,1.13a5.56,5.56,0,0,0,1.92.84,3.91,3.91,0,0,1,2.31,1.05,9.49,9.49,0,0,0,1.71,1.2c0.61,0.43,1.22.82,1.86,1.2a34.08,34.08,0,0,1,3.69,2.33,1.52,1.52,0,0,1,.71,1.75,4.28,4.28,0,0,1-.93,2,2.38,2.38,0,0,1-1.57.84c-0.66.1-1.52,0.17-1.8,0.88a4.77,4.77,0,0,0-.08,1.56" transform="translate(-355.27 -497.14)"/><path class="cls-4" d="M454.61,540.28a9.06,9.06,0,0,1,1-.84c0.26-.33.25-0.77,0.57-1.14a3.85,3.85,0,0,0,1.21-2.54" transform="translate(-355.27 -497.14)"/><path class="cls-5" d="M477.91,635.91l2.32-1.88a7,7,0,0,1,1.35-.36,2.77,2.77,0,0,0,1.1-.81,1.71,1.71,0,0,0,.81-1c0-.65-0.61-0.58-1.08-0.7-0.71-.19-0.74-0.26-0.65-0.84a10.08,10.08,0,0,0,0-1.39,3.31,3.31,0,0,1,2.36-1.21c1-.07,2,0.26,2.79-0.53,0.59-.6.66-1.51,1.31-2.2,0.79-.84,1.33-1.26,1.4-2.49,0-.48-0.16-1-0.14-1.42a5.07,5.07,0,0,1,.45-1.27l1-1.84,0.76,0.39a6.45,6.45,0,0,1,1.09.56,7,7,0,0,0,2.09.49c0.37-.11,3.52-0.85,3.77-1.19,0.6-.8-2-2.36-2.48-2.7a23.35,23.35,0,0,0-2.54-1.21,10.24,10.24,0,0,1-2.31-1.77,9.14,9.14,0,0,1-1.1-2.55,4.81,4.81,0,0,1-.56-3c0.1-.48.4-0.89,0.51-1.34,0.06-.26,0-0.57.06-0.83a3.21,3.21,0,0,1,.37-0.7,4.55,4.55,0,0,1,.44-1.22,2.41,2.41,0,0,1,1.23-.51,10.69,10.69,0,0,1,1.4-.43,2.15,2.15,0,0,0,1.26-.33,0.74,0.74,0,0,0-.51-0.8,3.25,3.25,0,0,1-1.15-.59,12.53,12.53,0,0,1-.93-1.1c-0.59-.78-1.21-1.56-0.78-2.53,0.16-.36.81-0.88,0.45-1.28s-1,.07-1.4.07c-1.15,0-1.5-.64-2-1.53a1.66,1.66,0,0,0-2.23-.88,6.64,6.64,0,0,1-2.87-.14c-1-.14-2.13,0-3.12-0.26s-1.68-.63-2.61-0.77c-1.93-.29-4,0.18-5.69-0.94a14,14,0,0,0-3.84-2c-1.4-.38-2.88-0.56-4.3-0.88a8.83,8.83,0,0,0-3.06,0,4.84,4.84,0,0,1-1.52-.13,3.06,3.06,0,0,0-1.35.21,3.29,3.29,0,0,1-1.4.19c-0.63-.14-0.59-0.57-0.89-1.08a5,5,0,0,0-2.29-1.74c-0.9-.45-1.73-1.05-2.61-1.53a9.74,9.74,0,0,1-2.56-1.31,1.37,1.37,0,0,1-.33-1.3c0.13-.38.67-0.62,0.42-1-0.36-.57-0.86-0.07-0.7-1a5,5,0,0,0,.24-1.22c-0.09-1.6-1.76-4.26-.38-5.55a2.16,2.16,0,0,0,.83-1.15,10.8,10.8,0,0,0,.07-1.53,4.82,4.82,0,0,1,.25-1.47c0.7-2.05-.84-3.7-2.3-4.89-0.29-.23-0.59-0.55-0.89-0.76s-0.76-.23-1-0.41c-0.8-.59.56-0.86,1.13-1,0.82-.21,2.23-0.56,1.32-1.7a10.29,10.29,0,0,0-1.33-.84,3.08,3.08,0,0,1-.56-1.21c-0.33-.63-0.56-0.39-1.16-0.44s-0.59-.28-0.83-0.76a2.61,2.61,0,0,0-.84-1,5,5,0,0,1-1.05-.67c-0.17-.63,1.8-1,2.2-1.15a6.11,6.11,0,0,0,2.17-1.77c1.22-1.49.76-3.8,0.65-5.61a42,42,0,0,0-1.16-5.86,17.33,17.33,0,0,0-.74-2.87,10.34,10.34,0,0,0-1.49-3.14,7.75,7.75,0,0,0-2.62-1.5,6.89,6.89,0,0,1-2.33-1.11,11.1,11.1,0,0,0-1.81-1.95,10,10,0,0,0-2.6-1.24,7,7,0,0,0-2.87-.11,5.94,5.94,0,0,1-2.8-.91,19.36,19.36,0,0,1-2.42-1.21l-2.49-1.5c-1.2-.74-2.07-1.9-3.31-2.57-0.5-.27-1-0.58-1.53-0.81a11.31,11.31,0,0,0-1.59-.4,11.6,11.6,0,0,1-1.27-.51,13.59,13.59,0,0,0-3.31-.77c-1-.14-1.88-0.44-2.87-0.58a28.12,28.12,0,0,1-2.93-.75c-1-.25-1.95-0.33-2.89-0.56s-1.88-.74-2.92-0.91a10.35,10.35,0,0,0-2.68-.43,7.69,7.69,0,0,1-3-.4,16.31,16.31,0,0,1-2.82-.75c-0.77-.36-1.58-0.81-2.41-1.15a13.23,13.23,0,0,0-3-.52c-1.08-.17-1.93-0.66-3-0.5a9.49,9.49,0,0,0-2.64.73,7.22,7.22,0,0,1-2.79.21,5.53,5.53,0,0,0-1.47.14,3,3,0,0,0-1,.83,6.5,6.5,0,0,0-1.1.8,4.62,4.62,0,0,0-.41,1.22c-0.42.94-1.68,0.92-2.51,1.14a9.37,9.37,0,0,1-1.53.45,7.25,7.25,0,0,0-1.35,0c-0.94.23-1.8,0.44-2.79,0.59a6,6,0,0,0-2.74,1l-1,.64-3.57-2,3.31-1.72,0.06-1-1.34-1.53-4.21-1.4,12-10.9,1.15,1.4,4.59-4.08,0.32,3.5,1.91,1,0.64-.89,2.1-.32,5.8,1.47,2.29-2.68,0.83-1.72,1.08,1,1.78-1.08,0.64-.76,2.61,1.72,1.15-1.34-0.51-.89,1.27-1.15,4.52,2.17,1.91-.25,1.91,0.7,2.29,3.19,2,0.7-0.7-2.49-0.57-2.55,2.1-.32,1.4,0.89,2.68-.76,3.63,3.44a11.51,11.51,0,0,0,1.15,1.72c0.19,0.06,2,1.72,2,1.72l2.49,1,0.25,1.15,0.7,1.53v1.21l1,1.08,1.08-.06,0.45,0.51,1,1.34h2.17l0.45,0.7,1,0.45,0.38,1.15,1.85,0.13,1.66,0.76,3.7-.13,0.25,1-0.38,1,5.67,2.8,0.38-.25,4.84,2.8,4.72,2.93,3.38,1,0.83,0.57,0.45,1.85,0.32,1,1.4,1.47-0.83,3,7.46,3.06,15.61,1.47,3.44,2.93,5.1,1.34-1.78,1.59,5.54,1.08,7.26-3.19,0.83,2,0.76,1.15,0.32,2,0.51,1,0.19,2.42,4.27,3.82,1.15-1.78,4.27,2.36,5.61-.64,1.21,2.17,2.36,9.75,5.42,3.44-0.57,1,4.08,2.68c0.19-.31.82,0.17,1.07,0.4a1.81,1.81,0,0,0,1.23.75c0.52,0.08,1.26-.13,1.72,0a0.88,0.88,0,0,1,.41,1.28c0.74,0.42,0,1.15-.46,1.41a4.82,4.82,0,0,0,0,1.39c0.21,0.81.56,0.41,1.1,0.4s0.11-.11.48,0.13c0.2,0.13.32,0.37,0.51,0.51a4.26,4.26,0,0,0,1.17.61c0.49,0,.88-0.67,1.31-0.05a2.87,2.87,0,0,1,0,1.39,6.14,6.14,0,0,0-.27,1.29c0.05,0.47.4,0.82,0.44,1.33-0.06.05-.09,0-0.12,0a0.3,0.3,0,0,0,.13.24c0.39-.35.53,0.06,0.7,0.31a0.84,0.84,0,0,0,.77.64c0.6,0.13,1,.11.9,0.89a6.29,6.29,0,0,1-.51,1.26,1.7,1.7,0,0,0,.19,1.23c0.13,0.42.28,0.92,0.37,1.35,0.22,1.11.17,1.73,1.22,2.34,0.62,0.36.72,0.46,1.3,0a7.16,7.16,0,0,1,1.26-.76,2.07,2.07,0,0,1,1.29-.48,1.6,1.6,0,0,1,.22,1.47c-0.24.43-1.09,0.46-.64,1.1,0.29,0.41,1,.25,1.48.39,0.72,0.24,2.34,1,2.61,1.7a2.84,2.84,0,0,0,.43,1.29c0.3,0.34.71,0.51,1,.81l0.64,0.57-2.55.7-1.47-3.06L544.8,601,541,628.31l4,10c-0.27.42-1.36,0.55-1.9,0.78s-1.09.71-1.67,1a7.19,7.19,0,0,0-1.83,1.15c-1.13,1.15-1.14,3.36.56,4a16,16,0,0,1,2.74.79c1.31,0.78,1.7,2.13,3.07,2.82a3.46,3.46,0,0,0,3.29.15c0.71-.36,1.63-1,2.23-0.17a3.07,3.07,0,0,1,.35,1.9c0.22,2.52,2.86,2.65,4.38,4.19,1.08,1.09,1.27,2.27,1.74,2.77s0.63,0.83,1.06,1.22,0.9,0.7,1.32,1.1c0.85,0.8.84,2.05,1.73,2.79a9.91,9.91,0,0,0,2.5,1.7c1,0.41,2.18.2,3.25,0.48a11.59,11.59,0,0,1,2.68,1.19,19.43,19.43,0,0,0,3.34,1.08c1,0.32,1.13,1.38,2.08,1.83,1.58,0.77,3.73-.75,5.27-0.1,1.16,0.49.74,2,.34,3a14.07,14.07,0,0,1,2.1,1.84l-0.7,2.17,3.57,5.54-8.86-1.27-2,.64-2.93,4.91,0.45,2.49-6.63.57-3-4.84-2.23-.13v1.53l-7.39.38-2.61,8.73-5.93-1-1.47,2.68-0.13,1.21-0.51,1.85-5.74.83-2,2.61v0.89l2.23,0.06-0.13,2.49,2.17,1-0.13,8-6.37,2.1-5.93-8.54-1.78.25-3.38,4.78-1.85-1.34-2,1.53-3.76-1.08L512.3,710l-4.78.06-3.44-1.85L494.2,718l-1.85-2,3.44-3.06-3-2.48-0.45-2.17-0.7-.38,2.1-3-2.87-1.08-1,1.4-1.4-1.85,1.72-3.31,1.47-.7-0.57-1.53,0.83-1.34,3.44-2.74,2.74-4.84,1.08,0.25,0.64-1-1.27-.64,5.29-9.56-8.54-7.07,3.89-4,3-4.52-1-1.47-1.85.13L499,662.85l-9.56-3.19-4.91,2.1-2-.13,0.25-.89-3.06-2.36-1.08.57-0.89-.45-3.76,5.61,2-.89,2.55-2.93,0.83,0.51L476.87,667l1.08,1.27-2.23,3.7-4.27-.57,0.19,4.84-1.34,2.93-1,2.23L469.09,684l0.7,5,3.44,2.42,0.64,3.31-2.8,1.72-1.15-1-0.06-1.53-2.29-.38-4-6.18-4,1.34L456,686.42l0.38-.89,1.59,0.19,1-3.57,4.4-6.12-0.51-2.61-1.27-.76-0.51-1.47-2.93-.19-0.13-.7,7.58-3.89,0.06-1.53,2.23-1,0.89-4.59,1.11-2.1,3-.57,0.83-1.53-4.14-2.8-3.31-.06-5.42-.51-2.8-2.36,1-4.72-2.29-.32-2,1-7.26-.45-5.86,1.53-1.66-.7,1.72-4.72-7.39-2.87,0.38-1.34-1.4-.7-2.23,5.1-1.08-.64,0.32-3.06-1.27-1.78-1.15,1.47-1.15-2.87-6.24-2.8L416,634.62l-2.29-2.29-8.6-2.36s-3.31-1.34-3.44-1.53,0-4.84,0-4.84l2.29-1.72-0.83-2.68L391.35,613l1-3.5-0.83-.51c-0.4-.21-0.86-0.08-1.27-0.27a2.16,2.16,0,0,1,.07-0.42,6.67,6.67,0,0,1,1.33-.25,3.09,3.09,0,0,0,1.08-.57c0.45-.36,1.15-1.56,1.8-1.11a10.59,10.59,0,0,0,.81.91,11.29,11.29,0,0,0,1.27.64c1,0.37,2.11-.09,3.13.06a12.52,12.52,0,0,1,1.27.64,13.7,13.7,0,0,0,1.59-.13c1,0.09,1.83.81,2.74,1.07a3.69,3.69,0,0,0,1.47.21,5.64,5.64,0,0,1,1.59.06,4.58,4.58,0,0,0,1.53.14,2,2,0,0,1,1.35.16,5.72,5.72,0,0,1,1.75,1.94,1.21,1.21,0,0,1,.19,1.24c-0.24,1.43.63,0.77,1.54,1a1.25,1.25,0,0,1,.72.62,10.66,10.66,0,0,0,1.34,1.35,10.48,10.48,0,0,0,2.41,1.32,10,10,0,0,1,1.16.9c0.38,0.24.86,0.32,1.25,0.54a13,13,0,0,0,2.82,1.2c1,0.27,2,.14,3,0.65a17.27,17.27,0,0,1,2.76,1.37c0.75,0.61,1.44,1.3,2.13,1.94s1.83,0.53,2.82.75a4.77,4.77,0,0,1,1.39.52,4.28,4.28,0,0,0,1.62.93c0.74,0.14,1.5,0,2.23.13s1.72,0.36,2.52.6a9.79,9.79,0,0,1,1.29.5,2.93,2.93,0,0,1,.91.82c0.69,0.65,1.69.6,2.42,1.27,1.37,1.25,2.41,2.67,4.06,3.66a22.64,22.64,0,0,0,2.79,1.21c0.77,0.34,1.27,1.38,2.1,1.34a8.43,8.43,0,0,0,1.27-.35,1.79,1.79,0,0,1,1.35.22,9.38,9.38,0,0,0,5.1.3,6.62,6.62,0,0,1,1.08-.19,4.13,4.13,0,0,0,1.08-.11,4.62,4.62,0,0,1,1-.4,6.25,6.25,0,0,1,.89.32c0.32,0,.58-0.19,1-0.19a2.26,2.26,0,0,1,.94.27,12.67,12.67,0,0,1,1.24.54,4.22,4.22,0,0,0,1.37.41,8.56,8.56,0,0,1,1.16.56,1.72,1.72,0,0,0,1.53-.13,5.62,5.62,0,0,0,2.44-1.19" transform="translate(-355.27 -497.14)"/><path class="cls-6" d="M409.49,587.87c0.24,0.52-.18,1.08-0.14,1.66a1.2,1.2,0,0,0,.89,1.14c1.07,0.49,2.71.72,3.22,1.92,0.33,0.78,1,2.73,2.26,2.52,1.6-.27-0.7-2.42,0-3a1.26,1.26,0,0,1,.92,0c0.13-.48-0.09-1.35.43-1.6s1.11,0.56,1.39-.13c0.2-.49-0.47-1.38-0.58-1.81a1.89,1.89,0,0,0-.92-1.47,40.24,40.24,0,0,1-3-2.84c-0.87-.82-1.37-2.18-2.4-2.79s-2.2-1.27-2.39-2.39a15,15,0,0,1,.14-2.25,1.78,1.78,0,0,1,.44-1.57c0.26-.25,1.43-0.87,1.07-1.4s-1.27.21-1.51,0.44a2.8,2.8,0,0,0-.56.8,10.59,10.59,0,0,1-.09,1.16c-0.29.5-1.49,0.28-2.07,0.29-1.22,0-2.76.36-3.94-.06s-2-1.59-3-2.26c-1.19-.84-2.42-0.6-3.76-0.86-1-.19-2.37-1.63-3.4-1.31a0.8,0.8,0,0,0-.15,1.36c0.54,0.57,1.28.22,2,.38a2.78,2.78,0,0,1,1.59,1.08c0.33,0.67,0,1.12.69,1.61s1.1,0.57,1.63,1,1.36,0.76,2,1.21a6.13,6.13,0,0,1,2.66,2.71,2,2,0,0,0,.95,1.36c0.54,0.25,1.13.09,1.67,0.31a6.76,6.76,0,0,1,1.28.72c0.58,0.43.34,1.16,0.82,1.5-0.31.19-.91,0.06-1,0.51a1.14,1.14,0,0,0,.84,1,8.55,8.55,0,0,1,1.41.31,2.24,2.24,0,0,1,.72.79" transform="translate(-355.27 -497.14)"/><polyline class="cls-7" points="173.28 153.87 157.88 158.19 153.85 160.92 153.63 170.63 155.43 172.65 155.07 175.96 154.35 175.46 150.47 181.93 148.67 180.71"/><path class="cls-7" d="M553.3,653.31l-2.23.65-1.44,1.94-4.46-3.24L543.66,656l-0.36-.58-0.65.94,0.65,1.44c-0.22.36-6.69-9.21-6.69-9.21L528.55,651" transform="translate(-355.27 -497.14)"/><polyline class="cls-7" points="133.84 162.65 131.4 161.13 131.76 160.34 134.85 160.85 136.15 157.03 138.95 157.18 140.32 154.08 147.01 146.6 148.67 141.49 150.25 128.18 154.06 128.1 154.35 123.86 158.31 121.48 162.27 122.49 181.34 151.49"/><path class="cls-8" d="M523.37,617.76" transform="translate(-355.27 -497.14)"/><polyline class="cls-7" points="162.27 122.49 168.1 120.62 169.46 120.05"/><path class="cls-7" d="M524.73,617.19s-1.73-1.51-1.51-3.17,1.44-2.52,1.51-4.89,0.79-3.89-.72-4.68-3,.43-3.53.72a5,5,0,0,1-4.25.65,5.32,5.32,0,0,0-4.53.72,13,13,0,0,1-2.91,1.59c-1,2.61-3.35,3-5.08,3.74a6,6,0,0,0-2.88,3.6,6.47,6.47,0,0,1-1.9,2.41c0.07,1.65-1.55,5.15-1.55,5.15l2.09,0.65,0.72-.79,1.73,0.43,0.65-.94,2.81,0.65-0.43,2.45,0.58-.14" transform="translate(-355.27 -497.14)"/><path class="cls-7" d="M492.21,595.31a2.85,2.85,0,0,0,2.16.14c1.37-.36,3.24-1.3,5-1.15s3,0.72,4.53.58,6.19,0,7.56,1.8a9.5,9.5,0,0,1,1.94,5.18,6.29,6.29,0,0,0,.79,3.45" transform="translate(-355.27 -497.14)"/><polyline class="cls-7" points="160.11 108.39 161.19 106.01 159.68 99.75 162.56 99.03 163.71 99.75 161.04 95 163.63 92.7 164.64 89.1 164.14 79.53 168.1 71.33"/></svg>