<svg xmlns="http://www.w3.org/2000/svg" width="53.13" height="46.532" viewBox="0 0 53.13 46.532">
  <defs>
    <style>
      .cls-1 {
        fill: #ee2455;
        fill-rule: evenodd;
      }
    </style>
  </defs>
  <path id="top-icon-clock.svg" class="cls-1" d="M1235.1,93.181a10.079,10.079,0,0,0-2.96-8.266h0a10.779,10.779,0,0,0-8.32-3.26h-0.08a12.692,12.692,0,0,0-8.56,3.816l-0.24.556a0.409,0.409,0,0,0,.16.476l0.48,0.32c6.96,1.827,11.68,6.756,14.16,14.544l0.32,0.4,0.56,0.161,0.48-.24A12.562,12.562,0,0,0,1235.1,93.181Zm-4.08-7.153a8.645,8.645,0,0,1,2.48,7.073,10.966,10.966,0,0,1-2.64,6.518c-2.56-7.233-7.12-11.765-13.52-13.908a10.931,10.931,0,0,1,6.56-2.466A8.885,8.885,0,0,1,1231.02,86.028Zm-2.24,21.462v-0.24a20.026,20.026,0,0,0-19.59-19.632h-0.24a19.1,19.1,0,0,0-14,5.8,20.172,20.172,0,0,0-4.8,7.708l-0.56,1.988a23.351,23.351,0,0,0-.4,4.133v0.24a22.311,22.311,0,0,0,.4,3.973,24,24,0,0,0,2.72,6.6l-2.56,4.45a3.733,3.733,0,0,0-.24,2.941v-0.079a3.339,3.339,0,0,0,1.76,2.386h-0.08a4.039,4.039,0,0,0,3.04.237,3.406,3.406,0,0,0,2.24-1.828l1.52-2.544a19.669,19.669,0,0,0,10.8,3.338h0.4a20.075,20.075,0,0,0,10.79-3.338l1.52,2.544a3.406,3.406,0,0,0,2.24,1.828,3.534,3.534,0,0,0,2.96-.317,3.068,3.068,0,0,0,1.76-2.306h0a3.5,3.5,0,0,0-.32-2.941l-2.56-4.53A18.835,18.835,0,0,0,1228.78,107.49Zm-19.59-15.5,0.48-.238,0.32-.556V89.207a17.464,17.464,0,0,1,11.75,5.246,17.845,17.845,0,0,1,5.44,12.162h-2.4a1.061,1.061,0,0,0-.64.238,1.05,1.05,0,0,0,0,1.114,1.08,1.08,0,0,0,.64.238h2.4a18.035,18.035,0,0,1-3.04,9.061l-0.16.4-0.08.319,0.08,0.237,2.8,5.01a1.924,1.924,0,0,1,.16,1.748h0a1.8,1.8,0,0,1-.96,1.272h-0.08l-1.76.238a2.333,2.333,0,0,1-1.28-1.034l-1.84-3.337-0.32-.318-0.4-.16-0.4.16a18.87,18.87,0,0,1-9.91,3.576v-2.067l-0.32-.556a0.572,0.572,0,0,0-.48-0.239,1.069,1.069,0,0,0-.64.239,1.15,1.15,0,0,0-.16.556v2.067a17.726,17.726,0,0,1-10.24-3.576l-0.4-.16-0.4.16-0.32.236-1.92,3.419a2.145,2.145,0,0,1-1.36,1.113l-1.76-.238a2.194,2.194,0,0,1-.96-1.272v-0.079a2.237,2.237,0,0,1,.16-1.748l2.72-4.849,0.08-.4-0.08-.4a20.6,20.6,0,0,1-2.72-6.519,11.185,11.185,0,0,1-.32-2.859h2.64l0.56-.238,0.24-.558-0.24-.556a0.861,0.861,0,0,0-.56-0.238h-2.72a19.292,19.292,0,0,1,.4-3.1l0.32-1.352h0.08l0.08-.556v-0.079a20.129,20.129,0,0,1,4.4-7.075,17.934,17.934,0,0,1,12.32-5.246v1.988a1.484,1.484,0,0,0,.16.556A2.082,2.082,0,0,0,1209.19,91.989Zm-0.48,2.623a0.72,0.72,0,0,0-.24.556V107.33l-6.32,4.769a0.717,0.717,0,0,0-.24.555,0.491,0.491,0,0,0,.16.558l0.48,0.318,0.64-.159,6.56-5.087,0.24-.239,0.08-.318V95.168l-0.24-.556a0.538,0.538,0,0,0-.56-0.24A0.6,0.6,0,0,0,1208.71,94.612Zm-7.04-7.789,0.48-.32,0.16-.476-0.24-.556a13.045,13.045,0,0,0-8.64-3.816,10.954,10.954,0,0,0-8.4,3.26,9.832,9.832,0,0,0-2.96,8.266,12.92,12.92,0,0,0,4,8.506,0.92,0.92,0,0,0,.48.24l0.56-.161,0.24-.4C1189.91,93.58,1194.71,88.651,1201.67,86.823Zm-15.52-.8a9.053,9.053,0,0,1,7.2-2.782,11.124,11.124,0,0,1,6.56,2.466c-6.48,2.143-11.04,6.675-13.6,13.908a10.966,10.966,0,0,1-2.64-6.518,8.645,8.645,0,0,1,2.48-7.073h0Z" transform="translate(-1182 -81.656)"/>
</svg>
