<svg xmlns="http://www.w3.org/2000/svg" width="86.41" height="46.188" viewBox="0 0 86.41 46.188">
  <defs>
    <style>
      .cls-1 {
        fill: #ee2455;
        fill-rule: evenodd;
      }
    </style>
  </defs>
  <path id="top-icon-truck.svg" class="cls-1" d="M1478.84,83.959c0-2.641-1.28-3.922-3.84-3.922h-43.6c-2.4,0-3.6,1.043-3.84,3.2h-18.24c-2.64,0-3.92,1.281-3.92,3.841v9.681q-4.92-.118-7.2,1.44c-1.68,1.121-2.56,3.041-2.56,5.763v6.4a3.928,3.928,0,0,0-2.88,3.76v0.082a4.142,4.142,0,0,0,1.12,2.8,3.813,3.813,0,0,0,2.72,1.119h7.36a0.911,0.911,0,0,0,.64-0.238l0.16-.561v-0.64a7.844,7.844,0,0,1,3.04-6.162,11.14,11.14,0,0,1,7.36-2.56,11.5,11.5,0,0,1,5.84,1.441l1.6,1.119a7.761,7.761,0,0,1,2.96,6.162l-0.08.56,0.08,0.4,0.32,0.4,0.4,0.079h22.56l0.56-.238,0.24-.561v-0.64a7.761,7.761,0,0,1,2.96-6.162,11.975,11.975,0,0,1,14.8,0,7.761,7.761,0,0,1,2.96,6.162v0.64a0.731,0.731,0,0,0,.24.561,0.866,0.866,0,0,0,.56.238h4.24a3.954,3.954,0,0,0,2.72-1.119h0a4.062,4.062,0,0,0,1.04-2.8v-0.082a3.621,3.621,0,0,0-1.04-2.721h0l-0.32-.239a3.828,3.828,0,0,0,1.04-2.963V83.959Zm-3.84-2.32a2.016,2.016,0,0,1,2.24,2.32V108.2a2.1,2.1,0,0,1-1.04,2.083h-2.64a0.868,0.868,0,0,0-.56.239,0.73,0.73,0,0,0-.24.562,0.862,0.862,0,0,0,.24.559l0.56,0.241h2.64l0.8,0.559v0.08a2.445,2.445,0,0,1,.56,1.6v0.082a2.18,2.18,0,0,1-.56,1.6,2.266,2.266,0,0,1-1.6.719h-3.44a9.5,9.5,0,0,0-3.52-7.2,12.46,12.46,0,0,0-8.48-2.962,12.05,12.05,0,0,0-8.32,2.962,9.329,9.329,0,0,0-3.6,7.2h-20.88a9.5,9.5,0,0,0-3.52-7.2c-0.64-.479-1.2-0.879-1.84-1.281a12.094,12.094,0,0,0-6.64-1.681,12.4,12.4,0,0,0-8.4,2.962,9.586,9.586,0,0,0-3.6,7.2h-6.56a1.972,1.972,0,0,1-1.52-.719H1395a2.235,2.235,0,0,1-.64-1.6v-0.082a2.588,2.588,0,0,1,.64-1.68v0.08a2.972,2.972,0,0,1,1.52-.719l2.96,0.08,0.64-.241,0.16-.48-0.16-.641a0.729,0.729,0,0,0-.56-0.239h-2.32v-6.321c0-2.082.56-3.521,1.84-4.482,1.44-.881,3.84-1.281,7.12-1.12l0.4-.16,0.32-.319,0.08-.321V87.08a2.05,2.05,0,0,1,2.32-2.24h18.16v25.526a0.851,0.851,0,0,0,.32.48,0.658,0.658,0,0,0,.48.32l0.64-.32,0.16-.48V83.959a2.073,2.073,0,0,1,2.32-2.32H1475Zm-53.6,5.2h-7.76c-2.64,0-3.84,1.281-3.84,3.843V97c0,2.561,1.2,3.841,3.84,3.841h7.76c2.56,0,3.84-1.361,3.84-3.841V90.681C1425.24,88.2,1423.96,86.838,1421.4,86.838Zm-7.76,1.6h7.76a1.992,1.992,0,0,1,2.24,2.242V97a1.991,1.991,0,0,1-2.24,2.24h-7.76A1.991,1.991,0,0,1,1411.4,97V90.681A1.992,1.992,0,0,1,1413.64,88.439Zm9.92,14.484a0.6,0.6,0,0,0-.56-0.32,0.765,0.765,0,0,0-.56.159,1.679,1.679,0,0,1-1.04.4,1.655,1.655,0,0,1-.96-0.4l-0.64-.159a0.775,0.775,0,0,0-.48.4,0.586,0.586,0,0,0-.16.479,0.944,0.944,0,0,0,.32.561,3.8,3.8,0,0,0,1.92.72h0a3.409,3.409,0,0,0,2-.72l0.32-.561Zm43.84,14.323h0a7.275,7.275,0,0,0-2-3.6,7.349,7.349,0,0,0-5.2-2.242,7.079,7.079,0,0,0-5.2,2.242,6.235,6.235,0,0,0-2,3.6,11.043,11.043,0,0,0-.24,1.6,6.915,6.915,0,0,0,2.24,5.2,7.323,7.323,0,0,0,5.2,2.159,7.612,7.612,0,0,0,5.2-2.159,7.063,7.063,0,0,0,2.08-5.2Zm-7.2-4.241a5.8,5.8,0,0,1,5.6,4.641l0.08,1.2a4.991,4.991,0,0,1-1.68,4,5.166,5.166,0,0,1-4,1.759,6.021,6.021,0,0,1-5.84-5.76l0.24-1.2v-0.08a4.863,4.863,0,0,1,1.52-2.881A5.889,5.889,0,0,1,1460.2,113.005Zm-52.4,4.161a10,10,0,0,0-.16,1.68,6.838,6.838,0,0,0,2.16,5.2,7.186,7.186,0,0,0,5.2,2.159,7.612,7.612,0,0,0,5.2-2.159,8.22,8.22,0,0,0,2-3.76l0.08-1.442-0.08-1.439a7.487,7.487,0,0,0-2-3.761,7.349,7.349,0,0,0-5.2-2.242,6.95,6.95,0,0,0-5.2,2.242A6.784,6.784,0,0,0,1407.8,117.166Zm11.2-2.481a5.455,5.455,0,0,1,1.6,2.961l0.08,1.2-0.08,1.121a4.986,4.986,0,0,1-1.6,2.88,5.519,5.519,0,0,1-8.08,0,5.257,5.257,0,0,1-1.68-4l0.16-1.28a5.081,5.081,0,0,1,1.52-2.881A5.7,5.7,0,0,1,1419,114.685Z" transform="translate(-1392.75 -80.031)"/>
</svg>
