<svg xmlns="http://www.w3.org/2000/svg" width="20.03" height="13" viewBox="0 0 20.03 13">
  <defs>
    <style>
      .cls-1 {
        fill: #777c80;
        fill-rule: evenodd;
      }
    </style>
  </defs>
  <path id="top-menu-icon-envelope.svg" class="cls-1" d="M1669,11.91c-0.05-1.439-.53-1.91-2-1.91h-16c-2.04,0-2,.722-2,2v9.09a1.872,1.872,0,0,0,.19.818l-0.01,0,0.02,0.017a1.88,1.88,0,0,0,.85.867l0.02,0.017V22.808a1.861,1.861,0,0,0,.81.192h16.25a1.852,1.852,0,0,0,.8-0.192v0.006l0.02-.017a1.88,1.88,0,0,0,.85-0.867l0.02-.017-0.01,0a1.872,1.872,0,0,0,.19-0.818V11.91Zm-2.13-.91-6.39,5.666a2.291,2.291,0,0,1-2.96,0L1651.13,11h15.74Zm-16.87.551,5.18,4.595L1650,21.327V11.551ZM1650.99,22l5.23-5.234,0.45,0.4a3.606,3.606,0,0,0,4.66,0l0.45-.4L1667.01,22h-16.02Zm11.83-5.854,5.18-4.595v9.776Z" transform="translate(-1648.97 -10)"/>
</svg>
