<svg xmlns="http://www.w3.org/2000/svg" width="33.031" height="50.25" viewBox="0 0 33.031 50.25">
  <defs>
    <style>
      .cls-1 {
        fill: #ee2455;
        fill-rule: evenodd;
      }
    </style>
  </defs>
  <path id="top-icon-point-marker.svg" class="cls-1" d="M899.44,103.92a16.5,16.5,0,0,0,1.68-7.522,16.518,16.518,0,0,0-28.16-11.682A15.966,15.966,0,0,0,868.08,96.4a16.765,16.765,0,0,0,1.6,7.283l14.24,26.085,0.4,0.4h0.56l0.48-.4ZM869.68,96.4a14.084,14.084,0,0,1,4.4-10.481A14.88,14.88,0,0,1,899.52,96.4a14.434,14.434,0,0,1-1.52,6.8l-13.36,24.566L871.52,103.6l-0.08-.081h0l-0.16-.161V103.12l-0.08-.161A13.9,13.9,0,0,1,869.68,96.4Zm21.04,5.441a8.534,8.534,0,0,0,2.64-6.241,8.764,8.764,0,0,0-2.64-6.4,8.643,8.643,0,0,0-6.24-2.56,8.963,8.963,0,0,0-6.32,2.56,9.09,9.09,0,0,0-2.64,6.4,8.857,8.857,0,0,0,2.64,6.241,8.7,8.7,0,0,0,6.32,2.642A8.4,8.4,0,0,0,890.72,101.839Zm-6.24-13.6a7.132,7.132,0,0,1,5.2,2.16v-0.08a7.119,7.119,0,0,1,2.08,5.281,7.006,7.006,0,0,1-2.08,5.121,7.337,7.337,0,0,1-10.4,0h0a7.421,7.421,0,0,1-2.16-5.121,7.323,7.323,0,0,1,2.16-5.2v-0.08A7.385,7.385,0,0,1,884.48,88.237Z" transform="translate(-868.094 -79.906)"/>
</svg>
